<mxfile host="Electron" agent="Mozilla/5.0 (Windows NT 10.0; Win64; x64) AppleWebKit/537.36 (KHTML, like Gecko) draw.io/28.0.6 Chrome/138.0.7204.100 Electron/37.2.3 Safari/537.36" version="28.0.6">
  <diagram name="Page-1" id="FeGfM4LPAAXwICniE8vn">
    <mxGraphModel dx="2526" dy="1699" grid="1" gridSize="10" guides="1" tooltips="1" connect="1" arrows="1" fold="1" page="1" pageScale="1" pageWidth="1100" pageHeight="850" math="0" shadow="0">
      <root>
        <mxCell id="0" />
        <mxCell id="1" parent="0" />
        <mxCell id="sNkLaML9vly4Q8W_7jKu-1" value="" style="rounded=0;whiteSpace=wrap;html=1;dashed=1;" parent="1" vertex="1">
          <mxGeometry x="-730" y="-180" width="220" height="680" as="geometry" />
        </mxCell>
        <mxCell id="sNkLaML9vly4Q8W_7jKu-3" value="" style="rounded=0;whiteSpace=wrap;html=1;dashed=1;" parent="1" vertex="1">
          <mxGeometry x="290" y="-180" width="220" height="680" as="geometry" />
        </mxCell>
        <mxCell id="sNkLaML9vly4Q8W_7jKu-4" value="Sources" style="rounded=0;whiteSpace=wrap;html=1;fillColor=default;strokeColor=none;fontStyle=1;fontSize=22;" parent="1" vertex="1">
          <mxGeometry x="-680" y="-210" width="120" height="60" as="geometry" />
        </mxCell>
        <mxCell id="sNkLaML9vly4Q8W_7jKu-7" value="CONSUME" style="rounded=0;whiteSpace=wrap;html=1;fillColor=default;strokeColor=none;fontStyle=1;fontSize=22;" parent="1" vertex="1">
          <mxGeometry x="340" y="-210" width="120" height="60" as="geometry" />
        </mxCell>
        <mxCell id="sNkLaML9vly4Q8W_7jKu-9" value="CRM" style="image;aspect=fixed;html=1;points=[];align=center;fontSize=13;image=img/lib/azure2/general/Folder_Blank.svg;fontStyle=1" parent="1" vertex="1">
          <mxGeometry x="-670" y="-90" width="69" height="56.00000000000001" as="geometry" />
        </mxCell>
        <mxCell id="sNkLaML9vly4Q8W_7jKu-17" value="" style="image;aspect=fixed;html=1;points=[];align=center;fontSize=12;image=img/lib/azure2/general/File.svg;" parent="1" vertex="1">
          <mxGeometry x="-616" y="-50" width="32.46" height="40" as="geometry" />
        </mxCell>
        <mxCell id="sNkLaML9vly4Q8W_7jKu-20" value="ERP" style="image;aspect=fixed;html=1;points=[];align=center;fontSize=13;image=img/lib/azure2/general/Folder_Blank.svg;fontStyle=1" parent="1" vertex="1">
          <mxGeometry x="-670" y="60" width="69" height="56.00000000000001" as="geometry" />
        </mxCell>
        <mxCell id="sNkLaML9vly4Q8W_7jKu-21" value="" style="image;aspect=fixed;html=1;points=[];align=center;fontSize=12;image=img/lib/azure2/general/File.svg;" parent="1" vertex="1">
          <mxGeometry x="-616" y="90" width="32.46" height="40" as="geometry" />
        </mxCell>
        <mxCell id="sNkLaML9vly4Q8W_7jKu-25" value="" style="endArrow=none;html=1;rounded=0;" parent="1" edge="1">
          <mxGeometry width="50" height="50" relative="1" as="geometry">
            <mxPoint x="-535" y="200" as="sourcePoint" />
            <mxPoint x="-705" y="200" as="targetPoint" />
            <Array as="points">
              <mxPoint x="-615" y="200" />
            </Array>
          </mxGeometry>
        </mxCell>
        <mxCell id="sNkLaML9vly4Q8W_7jKu-26" value="&lt;b&gt;&lt;font style=&quot;font-size: 14px;&quot;&gt;Object type:&lt;/font&gt;&lt;/b&gt;&amp;nbsp;&lt;font style=&quot;font-size: 14px;&quot;&gt;csv file&lt;/font&gt;" style="text;html=1;align=center;verticalAlign=middle;whiteSpace=wrap;rounded=0;" parent="1" vertex="1">
          <mxGeometry x="-720" y="220" width="180" height="30" as="geometry" />
        </mxCell>
        <mxCell id="sNkLaML9vly4Q8W_7jKu-27" value="&lt;span style=&quot;font-size: 14px;&quot;&gt;&lt;b&gt;INTERFACE:&lt;/b&gt;&lt;/span&gt;&amp;nbsp;&lt;span style=&quot;font-size: 14px;&quot;&gt;Files IN Folder&lt;/span&gt;" style="text;html=1;align=center;verticalAlign=middle;whiteSpace=wrap;rounded=0;" parent="1" vertex="1">
          <mxGeometry x="-725" y="260" width="210" height="30" as="geometry" />
        </mxCell>
        <mxCell id="sNkLaML9vly4Q8W_7jKu-28" value="" style="rounded=0;whiteSpace=wrap;html=1;" parent="1" vertex="1">
          <mxGeometry x="-340" y="-82" width="150" height="572" as="geometry" />
        </mxCell>
        <mxCell id="sNkLaML9vly4Q8W_7jKu-29" value="" style="rounded=0;whiteSpace=wrap;html=1;" parent="1" vertex="1">
          <mxGeometry x="-150" y="-82" width="140" height="572" as="geometry" />
        </mxCell>
        <mxCell id="sNkLaML9vly4Q8W_7jKu-30" value="" style="rounded=0;whiteSpace=wrap;html=1;" parent="1" vertex="1">
          <mxGeometry x="20" y="-82" width="140" height="572" as="geometry" />
        </mxCell>
        <mxCell id="sNkLaML9vly4Q8W_7jKu-31" value="&lt;b&gt;&lt;font style=&quot;font-size: 15px;&quot;&gt;Bronze&lt;/font&gt;&lt;/b&gt;" style="rounded=0;whiteSpace=wrap;html=1;fillColor=#ffe6cc;strokeColor=#d79b00;" parent="1" vertex="1">
          <mxGeometry x="-317.5" y="-130" width="125" height="40" as="geometry" />
        </mxCell>
        <mxCell id="sNkLaML9vly4Q8W_7jKu-32" value="&lt;font style=&quot;font-size: 15px;&quot;&gt;&lt;b&gt;Silver&lt;/b&gt;&lt;/font&gt;" style="rounded=0;whiteSpace=wrap;html=1;fillColor=#d0cee2;strokeColor=#56517e;" parent="1" vertex="1">
          <mxGeometry x="-147.5" y="-130" width="125" height="40" as="geometry" />
        </mxCell>
        <mxCell id="sNkLaML9vly4Q8W_7jKu-33" value="&lt;font style=&quot;font-size: 15px;&quot;&gt;&lt;b&gt;Gold&lt;/b&gt;&lt;/font&gt;" style="rounded=0;whiteSpace=wrap;html=1;fillColor=#fff2cc;strokeColor=#d6b656;gradientColor=#ffd966;" parent="1" vertex="1">
          <mxGeometry x="20" y="-130" width="120" height="40" as="geometry" />
        </mxCell>
        <mxCell id="sNkLaML9vly4Q8W_7jKu-35" value="" style="html=1;verticalLabelPosition=bottom;align=center;labelBackgroundColor=#ffffff;verticalAlign=top;strokeWidth=2;strokeColor=#d79b00;shadow=0;dashed=0;shape=mxgraph.ios7.icons.data;fillColor=#ffe6cc;" parent="1" vertex="1">
          <mxGeometry x="-291" y="-50.00000000000003" width="57" height="69.1" as="geometry" />
        </mxCell>
        <mxCell id="sNkLaML9vly4Q8W_7jKu-36" value="" style="html=1;verticalLabelPosition=bottom;align=center;labelBackgroundColor=#ffffff;verticalAlign=top;strokeWidth=2;strokeColor=#56517e;shadow=0;dashed=0;shape=mxgraph.ios7.icons.data;fillColor=#d0cee2;" parent="1" vertex="1">
          <mxGeometry x="-100" y="-50" width="57" height="69.1" as="geometry" />
        </mxCell>
        <mxCell id="sNkLaML9vly4Q8W_7jKu-37" value="" style="html=1;verticalLabelPosition=bottom;align=center;labelBackgroundColor=#ffffff;verticalAlign=top;strokeWidth=2;strokeColor=#d6b656;shadow=0;dashed=0;shape=mxgraph.ios7.icons.data;fillColor=#fff2cc;gradientColor=#ffd966;" parent="1" vertex="1">
          <mxGeometry x="61.5" y="-50" width="57" height="69.1" as="geometry" />
        </mxCell>
        <mxCell id="sNkLaML9vly4Q8W_7jKu-38" value="RAW DATA" style="text;html=1;align=center;verticalAlign=middle;whiteSpace=wrap;rounded=0;" parent="1" vertex="1">
          <mxGeometry x="-310" y="40" width="95" height="30" as="geometry" />
        </mxCell>
        <mxCell id="sNkLaML9vly4Q8W_7jKu-39" value="CLEANED &amp;amp;&lt;div&gt;STRUCTURED DATA&lt;/div&gt;" style="text;html=1;align=center;verticalAlign=middle;whiteSpace=wrap;rounded=0;" parent="1" vertex="1">
          <mxGeometry x="-127.5" y="40" width="95" height="30" as="geometry" />
        </mxCell>
        <mxCell id="sNkLaML9vly4Q8W_7jKu-40" value="&lt;blockquote style=&quot;margin: 0 0 0 40px; border: none; padding: 0px;&quot;&gt;BUSINESS-READY DATA&lt;/blockquote&gt;" style="text;html=1;align=center;verticalAlign=middle;whiteSpace=wrap;rounded=0;" parent="1" vertex="1">
          <mxGeometry x="-10" y="40" width="169" height="30" as="geometry" />
        </mxCell>
        <mxCell id="sNkLaML9vly4Q8W_7jKu-43" value="" style="endArrow=none;html=1;rounded=0;" parent="1" edge="1">
          <mxGeometry width="50" height="50" relative="1" as="geometry">
            <mxPoint x="-210" y="130" as="sourcePoint" />
            <mxPoint x="-290" y="130" as="targetPoint" />
            <Array as="points">
              <mxPoint x="-200" y="130" />
              <mxPoint x="-310" y="130" />
            </Array>
          </mxGeometry>
        </mxCell>
        <mxCell id="sNkLaML9vly4Q8W_7jKu-45" value="" style="endArrow=none;html=1;rounded=0;" parent="1" edge="1">
          <mxGeometry width="50" height="50" relative="1" as="geometry">
            <mxPoint x="-35" y="130" as="sourcePoint" />
            <mxPoint x="-115" y="130" as="targetPoint" />
            <Array as="points">
              <mxPoint x="-25" y="130" />
              <mxPoint x="-135" y="130" />
            </Array>
          </mxGeometry>
        </mxCell>
        <mxCell id="sNkLaML9vly4Q8W_7jKu-46" value="" style="endArrow=none;html=1;rounded=0;" parent="1" edge="1">
          <mxGeometry width="50" height="50" relative="1" as="geometry">
            <mxPoint x="125" y="130" as="sourcePoint" />
            <mxPoint x="45" y="130" as="targetPoint" />
            <Array as="points">
              <mxPoint x="135" y="130" />
              <mxPoint x="25" y="130" />
            </Array>
          </mxGeometry>
        </mxCell>
        <mxCell id="sNkLaML9vly4Q8W_7jKu-49" value="&lt;b&gt;&lt;font&gt;Object type:&lt;/font&gt;&lt;/b&gt;&amp;nbsp;Views&lt;div&gt;&lt;br&gt;&lt;/div&gt;&lt;div&gt;&lt;b&gt;NO LOAD&lt;/b&gt;&lt;/div&gt;&lt;div&gt;&lt;br&gt;&lt;/div&gt;&lt;div&gt;&lt;b&gt;TRANSFORMATIONS:&lt;/b&gt;&lt;/div&gt;&lt;div&gt;&lt;br&gt;&lt;/div&gt;&lt;div&gt;&lt;font style=&quot;font-size: 7px;&quot;&gt;⚫&amp;nbsp;&lt;/font&gt;Data Intregration&lt;/div&gt;&lt;div&gt;&lt;div&gt;&lt;font style=&quot;font-size: 7px;&quot;&gt;⚫&amp;nbsp;&lt;/font&gt;Aggregation&amp;nbsp; &amp;nbsp; &amp;nbsp; &amp;nbsp;&lt;/div&gt;&lt;div&gt;&lt;div&gt;&lt;font style=&quot;font-size: 7px;&quot;&gt;⚫&amp;nbsp;&lt;/font&gt;&lt;span style=&quot;background-color: transparent; color: light-dark(rgb(0, 0, 0), rgb(255, 255, 255));&quot;&gt;Business Logic&amp;nbsp;&amp;nbsp;&lt;/span&gt;&lt;/div&gt;&lt;/div&gt;&lt;div&gt;&lt;br&gt;&lt;/div&gt;&lt;/div&gt;&lt;div&gt;&lt;br&gt;&lt;/div&gt;" style="text;html=1;align=center;verticalAlign=middle;whiteSpace=wrap;rounded=0;fontSize=11;" parent="1" vertex="1">
          <mxGeometry x="25" y="210" width="110" height="30" as="geometry" />
        </mxCell>
        <mxCell id="sNkLaML9vly4Q8W_7jKu-53" value="&lt;b&gt;&lt;font&gt;Object type:&lt;/font&gt;&lt;/b&gt;&amp;nbsp;Views&lt;div&gt;&lt;br&gt;&lt;/div&gt;&lt;div&gt;&lt;b&gt;LOAD:&lt;/b&gt;&lt;/div&gt;&lt;div&gt;&lt;div&gt;&lt;font style=&quot;font-size: 7px;&quot;&gt;⚫&lt;/font&gt;&amp;nbsp;Batch Prosessing&lt;/div&gt;&lt;div&gt;&lt;font style=&quot;background-color: transparent; color: light-dark(rgb(0, 0, 0), rgb(255, 255, 255)); font-size: 7px;&quot;&gt;⚫&lt;/font&gt;&lt;span style=&quot;background-color: transparent; color: light-dark(rgb(0, 0, 0), rgb(255, 255, 255));&quot;&gt;&amp;nbsp;Full Load&amp;nbsp; &amp;nbsp; &amp;nbsp; &amp;nbsp; &amp;nbsp; &amp;nbsp; &amp;nbsp;&lt;/span&gt;&lt;/div&gt;&lt;div&gt;&lt;div&gt;&lt;font style=&quot;font-size: 7px;&quot;&gt;&amp;nbsp;⚫&lt;/font&gt;&lt;font style=&quot;&quot;&gt;Truncate &amp;amp; Insert&amp;nbsp;&amp;nbsp;&lt;/font&gt;&lt;/div&gt;&lt;/div&gt;&lt;/div&gt;&lt;div&gt;&lt;br&gt;&lt;/div&gt;&lt;div&gt;&lt;br&gt;&lt;/div&gt;&lt;div&gt;&lt;b&gt;TRANSFORMATIONS:&lt;/b&gt;&lt;/div&gt;&lt;div&gt;&lt;font style=&quot;background-color: transparent; color: light-dark(rgb(0, 0, 0), rgb(255, 255, 255)); font-size: 7px;&quot;&gt;&lt;br&gt;&lt;/font&gt;&lt;/div&gt;&lt;div&gt;&lt;font style=&quot;background-color: transparent; color: light-dark(rgb(0, 0, 0), rgb(255, 255, 255)); font-size: 7px;&quot;&gt;⚫&lt;/font&gt;&lt;span style=&quot;background-color: transparent; color: light-dark(rgb(0, 0, 0), rgb(255, 255, 255));&quot;&gt;Data Cleaning&amp;nbsp;&lt;/span&gt;&lt;/div&gt;&lt;div&gt;&lt;font style=&quot;background-color: transparent; color: light-dark(rgb(0, 0, 0), rgb(255, 255, 255)); font-size: 7px;&quot;&gt;⚫&lt;/font&gt;&lt;span style=&quot;background-color: transparent; color: light-dark(rgb(0, 0, 0), rgb(255, 255, 255));&quot;&gt;Data Standarization&lt;/span&gt;&lt;span style=&quot;background-color: transparent; color: light-dark(rgb(0, 0, 0), rgb(255, 255, 255));&quot;&gt;&amp;nbsp; &amp;nbsp;&amp;nbsp;&lt;/span&gt;&lt;/div&gt;&lt;div&gt;&lt;div&gt;&lt;div&gt;&lt;font style=&quot;background-color: transparent; color: light-dark(rgb(0, 0, 0), rgb(255, 255, 255)); font-size: 7px;&quot;&gt;⚫&lt;/font&gt;&lt;span style=&quot;background-color: transparent; color: light-dark(rgb(0, 0, 0), rgb(255, 255, 255));&quot;&gt;Data Normalization&lt;/span&gt;&lt;/div&gt;&lt;div&gt;&lt;font style=&quot;font-size: 7px;&quot;&gt;⚫&lt;/font&gt;Delivered Coloumns&lt;span style=&quot;background-color: transparent; color: light-dark(rgb(0, 0, 0), rgb(255, 255, 255));&quot;&gt;&lt;/span&gt;&lt;/div&gt;&lt;div&gt;&lt;font style=&quot;background-color: transparent; color: light-dark(rgb(0, 0, 0), rgb(255, 255, 255)); font-size: 7px;&quot;&gt;⚫&lt;/font&gt;&lt;span style=&quot;background-color: transparent; color: light-dark(rgb(0, 0, 0), rgb(255, 255, 255));&quot;&gt;Data Enrichment&lt;/span&gt;&lt;/div&gt;&lt;div&gt;&lt;span style=&quot;background-color: transparent; color: light-dark(rgb(0, 0, 0), rgb(255, 255, 255));&quot;&gt;&amp;nbsp;&amp;nbsp;&lt;/span&gt;&lt;/div&gt;&lt;/div&gt;&lt;div&gt;&lt;br&gt;&lt;/div&gt;&lt;/div&gt;&lt;div&gt;&lt;br&gt;&lt;/div&gt;" style="text;html=1;align=left;verticalAlign=middle;whiteSpace=wrap;rounded=0;fontSize=11;" parent="1" vertex="1">
          <mxGeometry x="-135" y="265" width="110" height="30" as="geometry" />
        </mxCell>
        <mxCell id="sNkLaML9vly4Q8W_7jKu-54" value="&lt;b&gt;Data Model:&lt;/b&gt;" style="text;html=1;align=center;verticalAlign=middle;whiteSpace=wrap;rounded=0;" parent="1" vertex="1">
          <mxGeometry x="20" y="380" width="110" height="30" as="geometry" />
        </mxCell>
        <mxCell id="sNkLaML9vly4Q8W_7jKu-55" value="&lt;b&gt;Data Model: None(as-is)&lt;/b&gt;" style="text;html=1;align=center;verticalAlign=middle;whiteSpace=wrap;rounded=0;" parent="1" vertex="1">
          <mxGeometry x="-150" y="380" width="140" height="30" as="geometry" />
        </mxCell>
        <mxCell id="sNkLaML9vly4Q8W_7jKu-59" value="&lt;div&gt;&lt;font style=&quot;font-size: 7px;&quot;&gt;⚫&lt;/font&gt;Star Scema&amp;nbsp; &amp;nbsp; &amp;nbsp; &amp;nbsp; &amp;nbsp;&lt;/div&gt;&lt;div&gt;&lt;div&gt;&lt;font style=&quot;font-size: 7px;&quot;&gt;&amp;nbsp;⚫&lt;/font&gt;&lt;font style=&quot;font-size: 11px;&quot;&gt;Flat Table&lt;/font&gt;&amp;nbsp; &amp;nbsp; &amp;nbsp; &amp;nbsp; &amp;nbsp; &amp;nbsp; &amp;nbsp;&amp;nbsp;&lt;/div&gt;&lt;div&gt;&lt;font style=&quot;font-size: 7px;&quot;&gt;&amp;nbsp;⚫&lt;/font&gt;&lt;span style=&quot;background-color: transparent; color: light-dark(rgb(0, 0, 0), rgb(255, 255, 255));&quot;&gt;Aggregated Table&lt;/span&gt;&lt;/div&gt;&lt;div&gt;&lt;br style=&quot;font-size: 11px;&quot;&gt;&lt;/div&gt;&lt;/div&gt;" style="text;html=1;align=center;verticalAlign=middle;whiteSpace=wrap;rounded=0;" parent="1" vertex="1">
          <mxGeometry x="20" y="430" width="120" height="30" as="geometry" />
        </mxCell>
        <mxCell id="sNkLaML9vly4Q8W_7jKu-65" style="edgeStyle=orthogonalEdgeStyle;rounded=0;orthogonalLoop=1;jettySize=auto;html=1;exitX=0.5;exitY=1;exitDx=0;exitDy=0;" parent="1" source="sNkLaML9vly4Q8W_7jKu-49" target="sNkLaML9vly4Q8W_7jKu-49" edge="1">
          <mxGeometry relative="1" as="geometry" />
        </mxCell>
        <mxCell id="sNkLaML9vly4Q8W_7jKu-66" value="&lt;b&gt;Data Model: None(as-is)&lt;/b&gt;" style="text;html=1;align=center;verticalAlign=middle;whiteSpace=wrap;rounded=0;" parent="1" vertex="1">
          <mxGeometry x="-332.5" y="380" width="140" height="30" as="geometry" />
        </mxCell>
        <mxCell id="sNkLaML9vly4Q8W_7jKu-67" value="&lt;b&gt;&lt;font&gt;Object type:&lt;/font&gt;&lt;/b&gt;&amp;nbsp;Views&lt;div&gt;&lt;br&gt;&lt;/div&gt;&lt;div&gt;&lt;b&gt;LOAD:&lt;/b&gt;&lt;/div&gt;&lt;div&gt;&lt;div&gt;&lt;font style=&quot;font-size: 7px;&quot;&gt;⚫&lt;/font&gt;&amp;nbsp;Batch Prosessing&lt;/div&gt;&lt;div&gt;&lt;font style=&quot;background-color: transparent; color: light-dark(rgb(0, 0, 0), rgb(255, 255, 255)); font-size: 7px;&quot;&gt;⚫&lt;/font&gt;&lt;span style=&quot;background-color: transparent; color: light-dark(rgb(0, 0, 0), rgb(255, 255, 255));&quot;&gt;&amp;nbsp;Full Load&amp;nbsp; &amp;nbsp; &amp;nbsp; &amp;nbsp; &amp;nbsp; &amp;nbsp; &amp;nbsp;&lt;/span&gt;&lt;/div&gt;&lt;div&gt;&lt;div&gt;&lt;font style=&quot;font-size: 7px;&quot;&gt;&amp;nbsp;⚫&lt;/font&gt;&lt;font style=&quot;&quot;&gt;Truncate &amp;amp; Insert&amp;nbsp;&amp;nbsp;&lt;/font&gt;&lt;/div&gt;&lt;/div&gt;&lt;/div&gt;&lt;div&gt;&lt;br&gt;&lt;/div&gt;&lt;div&gt;&lt;br&gt;&lt;/div&gt;&lt;div&gt;&lt;b&gt;NO TRANSFORMATIONS:&lt;/b&gt;&lt;/div&gt;&lt;div&gt;&lt;font style=&quot;background-color: transparent; color: light-dark(rgb(0, 0, 0), rgb(255, 255, 255)); font-size: 7px;&quot;&gt;&lt;br&gt;&lt;/font&gt;&lt;/div&gt;&lt;div&gt;&lt;br&gt;&lt;/div&gt;&lt;div&gt;&lt;div&gt;&lt;div&gt;&lt;span style=&quot;background-color: transparent; color: light-dark(rgb(0, 0, 0), rgb(255, 255, 255));&quot;&gt;&amp;nbsp;&amp;nbsp;&lt;/span&gt;&lt;/div&gt;&lt;/div&gt;&lt;div&gt;&lt;br&gt;&lt;/div&gt;&lt;/div&gt;&lt;div&gt;&lt;br&gt;&lt;/div&gt;" style="text;html=1;align=left;verticalAlign=middle;whiteSpace=wrap;rounded=0;fontSize=11;" parent="1" vertex="1">
          <mxGeometry x="-328.75" y="260" width="147.5" height="30" as="geometry" />
        </mxCell>
        <mxCell id="sNkLaML9vly4Q8W_7jKu-68" value="" style="rounded=0;whiteSpace=wrap;html=1;dashed=1;fillColor=none;" parent="1" vertex="1">
          <mxGeometry x="-390" y="-180" width="590" height="690" as="geometry" />
        </mxCell>
        <mxCell id="sNkLaML9vly4Q8W_7jKu-69" value="Data Warhouse" style="rounded=0;whiteSpace=wrap;html=1;fillColor=default;strokeColor=none;fontStyle=1;fontSize=22;" parent="1" vertex="1">
          <mxGeometry x="-200" y="-210" width="210" height="60" as="geometry" />
        </mxCell>
        <mxCell id="sNkLaML9vly4Q8W_7jKu-70" value="" style="shape=flexArrow;endArrow=classic;html=1;rounded=0;entryX=-0.005;entryY=0.478;entryDx=0;entryDy=0;entryPerimeter=0;strokeColor=#B20000;fillColor=#e51400;" parent="1" edge="1">
          <mxGeometry width="50" height="50" relative="1" as="geometry">
            <mxPoint x="-200" y="165" as="sourcePoint" />
            <mxPoint x="-147.49999999999983" y="164.49999999999994" as="targetPoint" />
            <Array as="points">
              <mxPoint x="-174.55" y="164.68" />
            </Array>
          </mxGeometry>
        </mxCell>
        <mxCell id="sNkLaML9vly4Q8W_7jKu-71" value="" style="shape=flexArrow;endArrow=classic;html=1;rounded=0;entryX=-0.005;entryY=0.478;entryDx=0;entryDy=0;entryPerimeter=0;strokeColor=#B20000;fillColor=#e51400;" parent="1" edge="1">
          <mxGeometry width="50" height="50" relative="1" as="geometry">
            <mxPoint x="-25" y="165.00000000000006" as="sourcePoint" />
            <mxPoint x="27.500000000000227" y="164.5" as="targetPoint" />
            <Array as="points">
              <mxPoint x="0.4500000000000455" y="164.68000000000006" />
            </Array>
          </mxGeometry>
        </mxCell>
        <mxCell id="sNkLaML9vly4Q8W_7jKu-72" value="" style="shape=flexArrow;endArrow=classic;html=1;rounded=0;strokeColor=#B20000;fillColor=#e51400;" parent="1" edge="1">
          <mxGeometry width="50" height="50" relative="1" as="geometry">
            <mxPoint x="-520" y="164" as="sourcePoint" />
            <mxPoint x="-340" y="164.49650723025582" as="targetPoint" />
            <Array as="points">
              <mxPoint x="-359.65" y="164.82000000000005" />
            </Array>
          </mxGeometry>
        </mxCell>
        <mxCell id="sNkLaML9vly4Q8W_7jKu-74" value="" style="shape=flexArrow;endArrow=classic;html=1;rounded=0;entryX=-0.005;entryY=0.478;entryDx=0;entryDy=0;entryPerimeter=0;strokeColor=#B20000;fillColor=#e51400;exitX=0.955;exitY=0.515;exitDx=0;exitDy=0;exitPerimeter=0;" parent="1" edge="1">
          <mxGeometry width="50" height="50" relative="1" as="geometry">
            <mxPoint x="170" y="164.70000000000005" as="sourcePoint" />
            <mxPoint x="302.4000000000003" y="164.5" as="targetPoint" />
            <Array as="points">
              <mxPoint x="275.35000000000014" y="164.68000000000006" />
            </Array>
          </mxGeometry>
        </mxCell>
        <mxCell id="sNkLaML9vly4Q8W_7jKu-75" value="" style="image;aspect=fixed;html=1;points=[];align=center;fontSize=12;image=img/lib/azure2/analytics/Power_BI_Embedded.svg;" parent="1" vertex="1">
          <mxGeometry x="340" y="-118" width="51" height="68" as="geometry" />
        </mxCell>
        <mxCell id="sNkLaML9vly4Q8W_7jKu-76" value="" style="shape=image;verticalLabelPosition=bottom;verticalAlign=top;imageAspect=0;aspect=fixed;image=data:image/png,iVBORw0KGgoAAAANSUhEUgAAAIAAAACACAYAAADDPmHLAAAACXBIWXMAAAOwAAADsAEnxA+tAAAAGXRFWHRTb2Z0d2FyZQB3d3cuaW5rc2NhcGUub3Jnm+48GgAAE8FJREFUeJztnXtclGW+wL/DVWTAQS7DgJggoGLqMUMRFfGabakcrbzQ/azLpljZ8ZPZ9nFTaS3PrttaJ86aRFt2jMojSKmrlmmZl1wWxRUVzdQhuYjcRbnN+WMU5515hxmGdwZG3+/n834+Ps/7PM/7w99vntvvuYCMjIyMjIyMjIyMjIyMjIyMjIyMjIyMjIyMjIyMMZ7A88AhoA7QyU+3eupu6iYV8DCjQ5sJBfK7wR8pP9Y9/7ypM0nwRFa+Mz55iNQELsYRVpACDLMhn0zXMhxYYBypsKGgw8DIW4Fp06bxzjvvEBIS0gnZZKSmuLiY1NRUdu3aZRh9EIg3jLDFAGoB5a3AmTNnCA2VrHmRkRCtVsuAAQMMo2qAXoYRthiAzjBQX19vQxEyjsLb29s4SqBzW/oAMncQsgHc5cgGcJcjG8BdjmwAdzmyAYhQVlbGqlWriI+PR61Wo1arSUhI4M033+Tq1atWlZGbm0t4eDjh4eHs2LGjLX7nzp1ERUXh7e0tyRMZGcm2bdts/lvlYaARW7ZsITU1lZqaGtH3vXv3ZsOGDTz44IPtltO/f39KSkoA0Gg0nD17FoDo6GiKi4slldmwfGO65TCwtLSUN954g9jYWDQaDSqVijFjxrBixQrKy8u7QiQAvvjiC55++mmzyge4evUq8+bNY+fOne2W5erq2vZvhcKW31n3ReBkqK+v79CzadMmnZ+fn1mnhbe3t27Tpk0dLrezz9mzZ3U+Pj5WO1cCAwN1Wq3WbHlbt27VhYaG6jQaje6LL74wibf2O5YejUaj27x5s1k5RPIIcGgTsH37dubOnUtLS0u76VxcXMjIyOCxxx6zQTzbWLlyJWvXrm0LK1zd8Rn/Ij2H/ju61lYaTuRQ8+2fobW5LU1aWhpLlixxmIy20G2agOrqan79619bVD5Aa2srS5Ys4fLlyw6QTM/27dsFYeXYRXjf/wQKDyUuPXzxvv8JfBOFyjbs3DkrDjOA9PR0qqur28Ie7grWpWoo/zKGiq8G88dFGjzcbxtnVVUVGRkZjhKPn376SRDuee8MkzReg6cLwuY6Xs6Ewwxgz549gvCbKcEsfiQAldIVX28XXng0gN8/oxak6czwptPoTJpLkSSW03R3HGYAhYWFgvD8qX4maZ54QBh36dIlu8pkSP/+/QXhaydMja/BKC4qKspsec4yD+AwA/D09OxwnubmZsuJJGLQoEGCcN2B96j/8W+0NlTR2lBF/Y8fUbPvbUGahx56yGx5L774ImVlZZSVlbF48eK2+Oeff55ffvlFMrkvX77MSy+9ZHN+N8kksUB4eDilpaVt4U92VfL8IwGCNB/trBSEY2Ji7C5Xc3Mzr7zyCp999pkgXtfSRM3eP1Gz90+i+QICAnj22WfNluss8wAOqwFmzpwpCL/yPyX85fMrXK1p4Up1M3/OusKqD0sFaR544AG7ylRVVUVSUhLp6ekdyufm5kZGRgY+Pj5m07z77ruEhoai0WhYv369SbxUaDQa1q1bZ3N+h8wDVFVVMWfOHL7//nurP+Ll5UVRURF+fqZ9BSk4c+YMjz76qElPXqlU4ubmRlVVlWi+wMBANm7cyOTJk+0il9R0+TyAVqtl8uTJHVI+QENDA8uWLaOhoUFymXbv3k1iYqKJ8vv27cvXX39NQUEBK1asIDY2Fn9/f/z9/YmLiyMtLY38/HynUb412LUGKCwsJCkpCa1Wa8Nn9AwdOpTNmzfTr18/m8sw5IMPPmDJkiUmHcy4uDg2b95MUFCQJN/pLnRZDbB//34mTpxoovyxY8dy4sQJVq5cyejRo/H398fPz4+RI0eSmppq0q4eP36ccePG8c0333RKnsbGRp577jkWL15sovynnnqKHTt23HHKtxcWnUGZmZk6T09PE0fErFmzdBUVFe06ZfLz83UDBgwwyevq6qpbtWqVrq6ursOOnp9//lkXHx8vWuZbb71lF+fSp59+qgsKCtIFBQUJnEFbtmzRhYSEdBtnkOQGsGbNGp1CoTD58KJFi3S1tbVW/eeVlpbqkpKSRP/gpKQkXWlpqdWKOHTokK5v374m5fTq1UuXk5NjN+9icHCwQEm34qX0BIqV31EDkKwJaG1t5eWXX2b58uWCKVKFQsGaNWtYu3YtLi7WfU6pVLJp0yZWr14tGE8DZGdnk5CQQFFREeXl5aSlpTF69GiCgoJQq9XEx8ezevVqysvL2bZtG5MnT+bixYuCMqKioti3b59dO3POMg9gCyY1wNWrV3WzZs0ysTZPT09dZmZmp35Jubm5ut69e5uU7ePjo+vVq5fZX4VSqRStiSZOnKgrLi622y//1nOnrQcIAp4DpgFxhi+OHTvGokWLTIZ5vr6+ZGVlkZCQYOUnzHPhwgXmz59Pfn5+p8pZuHAha9aswc3NYROgXY6lUYA1BvAI8D6gsvajISEhZGdnM3jwYGuzWKShoYEXXniBTz75pMN5PTw8WLduHc8884xk8jgLlgzA0k/hEeBTwNVCujYGDRpEdnY2ffr0sTaLVXh5ebFhwwYaGxv5/PPP2+Jd3VyY9Ex/hk7SoFBA/u7LfPPhOVqaW9vSpKSk3JXKt4b2DCAYyKADyh87dixZWVmoVFZXFh3m/PnzgvCkZ/ozckZYW3jUzDBamlr55m/n2uIOHTpkN3mcnfa65amA762Ah4uCtdF9KR4/gsvjR/BmVF88XIQtyJQpU+yqfIDTp08LwkMmBJukGTpRIwifO3fOJI2MnvYM4GHDQFpkGAvDgunl5oqPmyupfYN5vX+YIENOTo49ZBRgyyocR64rcDbaM4BIw8Dc4ACTBI9rhHGOWCM3cOBAQbjgmxKTNMe+Fi4mbW9dQXZ2NhEREURERJCdnS2NkE6E1RNBN1pbTeJajX6MjhheTZkyRRDe8+FZDudcoqG2iWs1TRzaepH9/3u+3TyGLF26lNLSUkpLS1m6dKldZO7OtDcMzMfgMKhVkWG8dI+wbV1/sYRXi27Pso0aNarTThtLVFZWEhMT0+7uHUN8fX0pLCw02zcxHibV32Fb3TrjDcw1DKT9pGXdhctcvtFIRVMz71ws4fdnhYs2p08XLpu2B35+fmzcuNFkilgMV1dXMjMz7d4xdWbaqwHUwGmMDhUyh0ql4uTJk/TqZVXyTpOTk0NqaqrZ3bq9e/cmPT2dhx9+WPT9LexRA2i1WpYtW8aePXuoq6sTvFMqlUyYMIHVq1e3u6pYKjo7EzgbyMLCXIC7uztbt25lwoQJHRawM5SVlZGZmcm2bds4f/48ra2tREZGMnPmTJ566imr/PtSG4BWqyUuLo7Kysp206lUKg4fPiz5hJkxUkwFz0I/Fdxb7KVGo+G9995j6tSpNgnY1UhtAMnJyVaPJmbNmsXHH3/cqe9ZQgoDAAhEf0Lor4DRhi+Ki4uduo2V2gDUarVJtW8OHx+ftjME7IVUBmCIYPDn7L1mqQ3AsDyFAhr3DhG8d08skPR7HZHnlliGAfmImLscu87cnDlzhoMHD3L06FGKioq4ePEiFRUVbVWkUqnE39+fsLAwoqOjGTZsGGPGjGHgwIHdYhVNd+rN2wvJm4CTJ0/y8ccfk5uba+K5s5Y+ffowffp0kpOTGT58uE1lWIu5JsDW3vxd2wTs3r2bqVOnEhsby/r1621WPuj/89PT0xk7dizjx4/nyy+/dPhW7GXLlllUPuh3PS1fvtwBEtmHThtAQUEBU6dOJSkpiQMHDkghk4CjR48yZ84cEhISOHLkiOTlm8P4PIP22L17tx0lsS+dbgJcXV3NHvvi6a5gzBBvEod7M+AeT6L7eDL82SJBmpT/HkXl5QZKz9ehLaziwokqmhtNHU+gX127YMEC/vCHP+Dl5WWD6KaYawIEVTlQO2mkIJ3ya6ExiuZzgiag051AY+UrFJAwzJsFM3ozPd6Xnj3ar2QC+3oT2Neb6FF613LT9RaKfrxC3s5f+LmgUmBuOp2ODRs2sG/fPrKyspy689VdkHQY+GCcD3kZUex5O4I5E1UWlS+Gew9XYsapefyN4Sz4y0iiYk3XIZw+fZrx48ezd+9eKcTuNmi1WpKTk1Gr1SYngajVaubOnUtRUZHlgjpARzUkusb7nmAPdv4pnG1v9uPeiB4SiKVHHa5kzoqhzFv5b/QKEpZbXV3N7Nmz74iTuuD2qCM7O1t0JrGuro7c3FwSExM7tdnWmI4YwAiMXMQA8yar+EdGJJNGKEWySEP/+3rzm3dGMjA+UBB/48YN5s+fz7fffmu3bzuKrhp1WGsA9wA7MVgkCvD6s2o+ei2MXt5WLxy2Gc+ebjzyyhAS5oUL4hsbG5k3bx6nTp2yuwz2pKtGHdZ0At3R7w1oa4wVCnh3SSi/mSHqILQfCkiYH04PpRu73r/dFtbU1JCcnMz+/fvFer1OgaDaV8Br2yYK3qdNv73Sqra2VrLvWlMDpGG0HWzF02rHK9+AkTPCSJgvrAlOnTrFq6++2kUSOS+WDOBeQHAGWfIUFb97susPUkiYG27SJ/jggw84ePBgF0lkijOcI2nJAN7BoJnoq3Zn/YuhdAM/DShg+guDBKODW1vU74QTPB1FewbwAJBoGLHh5T74encfD7JnTzceXCi4GJG8vLyuPWLWyWhPm4JF8g+N9rHrUM9WIkf4E3m/vyDu7bffNpPasXSLmtIC5gxgMDDpVkChgJX/YboHr7sw4QnhOb9HjhwhLy9PsvJtbVCcoSUyZwDzMHAaTBqhZFikdDN8UqOOUHLPEOGBkllZWV0kjXNhzgAeNQw8Oc0+p3VKyX3ThLeXb926tYskkQAH1hxiBhB98wHAu4cLSeN8RZJ1L6JiA3DzuP3nFBcXO/3soCMQM4BRhoHR9/bEy7P79PzN4eHlSt8Y4fJ0eyxQudMQ06xg5UPCMOeZWu0TI9yWdvz48S6SxHkQMwDBwHpopDQrbxxBcITwmFnj00RkTBEzAMFh9v2C3R0kSufxCxYaq1Q3dNo6nLd5HsCB8wdi3kDBgD80UDoDaLhhutbP0MslNVeuXLGYRqlUCjxxxcXFJhc6OHweoItHAR6GAU/3zptjS6uOzK8qiXn8TKfL6gjW3DVgfFdQamqq5Hf7dmfEtFuNwcKP+t33Cu7z6yjbDtTw2vslFP58w+YybMXd3d3szR+3SE9PvyOOhrl1dcyMGcL7Dm3ZHFqBwVbw8i9jUCk7vuLnQEE9y/9awsET1zqcVypUKpXFX/ONGzdITEy8I0YMYreI27IsvAQDAygub+qQAZz8+TqvvV9K7gHxM3y8XFxICVOztJ8GlcSHSp2sa2Dk4dvr7gMCTFcUG+Pp6cmWLVuYPXv2HWEEHUWsDyA4+OdiaZNVBV0qa2LBWi33PXtWVPmuCgVPhgTyz9FDSYsMk1z5AOcargvC1p6+ERISwr59+1i3bh2jRo1Cqex+Xk9L2Hp7mJgWBJfo/uN0Aw/Gmb8erbK2hbc+Kee9rRWivXyAhwL8eD2yD4O87TunUFAnbG6io6PNpDTFw8ODlJQUUlJSpBarWyNmAIfQHw0PwA8nxLcuNTbp+GtOBav/VkZlrfjWsFhfJasjwxjrZ96ApOSHKuFiyfvuu88h33VmxAzgB0Gg4Br111vxvrnLp6VVx0c7qlj1YSnacvHmYaC3F6/378PDgY7zIta1tHC4SrihYvTo0WZS3x2IbCAxaZvFDOAscB4IB6i/3kr2dzUkT1FZHNKFenrwakQoj2sCcHXwcpivyqtoMDjNNDw8nMjIyHZy3NlotVpSU1ONo/9lHGFOS2uAV24FRgzwwtNdwQ9mhnQqNzf+s5+G34ap8bLyXiCp+VXeKfZXWnd66F3MIuA9wwhzBjAUOGaptB4uLvzWTkO6jnCs9hpjjpzosu87CXnoT3hrNIw0p7XjwD5gvNhLV4WC+cEB/C4ilD49PMSSOJSV5y5ZTnR3kwdMx0j50P7WsDWIGICjhnTW8veKKnZVVHe1GN2RWqAA+ATYiIjywbLj8QcMDoYM9nTnaNyQLq3uDalubmHkoQKKbwj+tr3ARDNZZIyw1GNbCLRdt1Fyo4mUf513pLfSLDpgYeF5Y+U3AYu7RiLnxNIk/y2/QNvm0KJr11EA4/y6dqHoGz9pySguM47+L2BzF4jjtFjj5fkW/YWRbeuuv6uqxcNFQbzKMTN8xrx7sYTXz5lMchwBngTEpyVlRLHGAFqAPcATQFvP79ubY+6xfr4OW8GkA9b8VMzvTZV/BZgMiF8eIGOWjuhuDPB3QOBgnh7ox/uDI1BacYNHZ6hubmFh4Xlyykx0XIN+G9tRuwpwh9IRrV0CDgOPYTB8PHPtOp+VXKVfT0+ie9pnaLiroprZx07zY7XJ4Un1wAyM/Bcy1mNL7T0W+D/0dwgI+FWAimXhoYzwlWYvQX5tPSvPadktPs4vQa/8HyX52F2Krc13OJADDBF7meDny9MhgUwLUOHr1rGmob6lhe1XqviwuJx95uf289DfZHKhQ4XLmNCZ/lsP4HX05wiIatnDRcE4lS/39/JmqLInA7y9ULm5oXJ3xQUF9S0tlDQ2ce7adU7UNfBDVS2Hqmu51iK+sAT9nMRbwEr0Y36ZbkAs8B36Tro9nz2AvMKjGzMN+B5pld4KfH2zbBknIQb4I3AO2xV/Gv2s3gBk7Iq953D6o3fMDEWvzH7op5Z7ou83VN18LqBfrfIv9M4c+b53GRkZGRkZGRkZGRkZGRkZGRkZGRkZGRkZGRkZmU7x/yuqvf1u5Tv0AAAAAElFTkSuQmCC" parent="1" vertex="1">
          <mxGeometry x="400" y="-118" width="80" height="80" as="geometry" />
        </mxCell>
        <mxCell id="sNkLaML9vly4Q8W_7jKu-78" value="BI &amp;amp; Reporting" style="text;html=1;align=center;verticalAlign=middle;whiteSpace=wrap;rounded=0;fontStyle=1;fontSize=15;" parent="1" vertex="1">
          <mxGeometry x="332.5" y="-45" width="160" height="30" as="geometry" />
        </mxCell>
        <mxCell id="sNkLaML9vly4Q8W_7jKu-79" value="" style="shape=image;verticalLabelPosition=bottom;labelBackgroundColor=default;verticalAlign=top;aspect=fixed;imageAspect=0;image=data:image/png,iVBORw0KGgoAAAANSUhEUgAAAIAAAACACAYAAADDPmHLAAAABHNCSVQICAgIfAhkiAAAAAlwSFlzAAADsQAAA7EB9YPtSQAAABl0RVh0U29mdHdhcmUAd3d3Lmlua3NjYXBlLm9yZ5vuPBoAABjISURBVHic7Z15fBRVtsd/53YHSCLIqoCigAtBZwbZxRG3p6CjBkYMOvoICWInLAHiCBKSOOUkIYCaAAGy0IQGHovgMui4AA4q+lgMiLhAQI2OIDBAAgSz9VLn/ZGA3U26u7q7ujrpl+/nkz84XXXvoevXt+5y7rlACy200EILLbTQQgsttPD/Cwq2A1rBzFSdP28AbGIUEQ0HuBuAa+s/paMATjLkHYDYHDl11hfB9FVLQl4AzEw1S14eC+K/A7hZ4W1HwJQWPnXm60TEgfQv2IS0AGqXZt8os24dwIN9K4H3CMFPtZmcUqauZ02HkBVAzeIFw1nwGwC6+FlUBbEcE56Usl0Nv5oaISmAmrzs+5jEBwDCVCrSQiyPCE9K+Vil8poMISeAmryXezHJnwPorHLRFYLkoW2mpHyvcrlBRQTbATVhZmLi16D+wweAjrIs1jBzSP1oQkoANUvnP+F7h08BhNtrli0YE7Dyg0DICKD+l0kvBb4iygilViBkBFC9ZMFAKB/n+wFHVefNuy3w9WhDyAgAxKO0q0toV1eACRkBEMSdmtVFNFyrugJNyAgAxNdoV5mWdQWW0BEAo5uGtbUIoAmiWc+cwbJWdQWaUBLAKa0qIojjWtUVaPS+3sjMtPiL0gGw0SgiHs7AxfV1IlA5g38E+FNmbJ0x5JYd6rncOHUyylsL9Ap0PfXwCW3qCTxeN5vMTItKDo0lIuXr64SDJOPlpMFRq9RcX0+MTb2GBT1OhPEju7XqP7J7a7WKdgszXopMekHSpLIA45UAcvZ9e6NOFusA+DTdSsAuGRQ/Y3DUYV/uB4AJE2a1bc1hjzFjHED3ouE11usKHZKiInwt1itYlgdETkvZr0llAUaxAPL2ld4ny7wJQEc/6zzL4CdmDL5lm9IbJEkSx3+23EGMcSTTUyBc4XwNEWHmLeHoGq7z0z1PUGn4lJm3hEqkkCIBNDx8NdfX60D00PRBUR+5u2jK+PRbrcTjCIgFPA7zbPd0bXU4+trWt6jkY+MwPR6RNOuNgNahIR4F0NDs74H/v3xnzutkDJk6tO8Re+PUCVJ3i2yNaXjoAzwXQwcJvNqil03LR9x2pubUjzsA3KGyrxfZGT5l1p2h8usHPIwCmJkW7y1dB/UfPgBcaRO8QmK++/zY51rXRkY8wkyxVpv1QSIPoxPGMQh6kwnFhcUZBy6ajUagdtGCOFnHXwCXvyb8ocrCWHu09rUZIfTwAQ8twMLPDz5BRBsC6cCpkgMfl+/5ZlBj73UnzgN4mwRW5xdn/guAywfREBL2LoA2avhoZaDwSDV+uGCzMfG4wpVZ69UotyngUgANv/5SBHiJta7iHH7c8B6YG32eNjA+YtCaarnmjTVrXqlSWu6ezOzEG9tSfrjOvwnCKgvDVFaDHy7YLvkUSiJw+e0s2ndoIGTs1cKJf7+5FdUnTtubSsD8P2FCXp+3Mvu0q/tcERMTo+sU2WdX59Zi8Lje4egR6fOE507jd3XrD54z58LxtRQyInD5rmUbjybSZno9skc3VB8/3eh73Rc6R/Z5joHBZ+pkLDxUhUGd9fhzj/DjbXTorrCIw2BKDZ86881pRJw4Pv0UmNfaiUBHTGsS4lPR3EXg8gkvLjn0EQP3aOGErbrm611Lsvtv2rTJ5vlq90wcl9YrTIevGYi8ZCRszC/OeLJ22fw/siweBngYCDcA6ATABtAxgE8wYweI3m5sa1ji+PSxgIMIgBBoCVy3AIRrXHez1EUXER6pxsMHQHqBIoeHD1RYdfK0hqHbZw1/XlOwKmNj4vh0hFpL4PrlqO36+tVqFJIYn2YA4X57GzMlG41z/6NG+QWrMjYC9DQYVjvzRRH8RY06tMZd70jL8a7fy9JTJ0jdmTHP0cr/KlyVscbfsu0JNRG4++K1XPI8528BFtm6lID2F/9NQBWJMAMCIORQEoE7AfyimRfAEc+XuCYhPvUvBIy2tzHR7PxiKWC7ekNFBC4FwIRPtXKCwZ/7eu+U2JROxLTQyby76/W6ZX665ZFQEIFrAYA3a+XEyY8+bztu3PORnq+8HJvQLQJwlZ2pjsn2jCRJmsTtuRPBpLj0p7TwwR88TQUfAtAnkA6Yz1WibN0/wTKfAWFpmEWfk7dWqlRy76TYOQ+xEO/Z2wicmm/KmhsYb13jap6AQLH5pox1WvujFJctABExE6UH2oEz+76tXwcgdAbwN4ve+kNiXJqU9LTUzt19SU9L7ViIQifzV7ZWp18OnLeucdUSMHh1U24J3A6/pg/s8zqAPYGqvPZUubXy8I+ORoVCsOit8wD0uGRgWIlpQlFRkSVQ/nqiOYrA42R/7q5DPYUen8P/VCvOnD1/8sS9J97Y/qAMzLYfwjnAuOzVkBCbPowEfwYHAdO8AlNGiqvKGKCzE5PvZIFHIdNQEN+A+jgHGcBRAk4ysEMm3tylaKFfWcKa0+tA0WrPor2l94J5C9QLCatlcPTFuMAJE2a1bS23mqxICGRbaoHuEzD6/vYRHYmo+vW23E25NZfdJkmi/Pj5cYKRxsCNCv07AqK0jkU5r5OP8wjNRQSKl/tySw7dI4DXUb+A4jOyzWYWev2DjcUDKhMC14Ao3L5IZr63cFXWZXsPTj/73M2ifu5+kI/u7tHZ8FT74lyf5hOagwi8Wu/NLTnSW7BtLQi3+1JZzcnT+GXbLtlyrnJYweosl2N/RUK4CLOxYFXWs87mimdnPMSgjfA3NIxRLguK6VKU4zaA1RVNXQQ+bQzJ23t4DIMzoXCIaD5/wXzm869bnf/uJ4AZYOzt2ks/1NNYXYkQiFHOhCX2fYSKic/9SSZ+kwC1dopYZOYRXYwLP/bl5qYsAr8iPhaXfNufIUYxYzgRuqN+a5gOhAowjjDoc5Z585HCtZEsw2kfAD1TYMooVlJPvRDCNjFopMuLGvoIE6nu7V5663YAV/r+P2uUCpuMoVetyPUpS1hTFYFmO2onxaW9wcBjdqZTbaDvs9AkeVwIejY25Wad0B2AhyBPAjBZX2vtTjaf9zx6YHfH5bl3aNExZGbC/qyBEGIUCMPB1BXghtzGOArgJIAdIN5M/VJ9HrVotjuYiGcQYB/UeVUt2TwmdZIkSeiEzgj7h89cTkyZ7LSK2F9YEcCHDwC3V0yc4XOWMCXzBMxM/GXWWByYdxhClABIA+NugPugPtAlEkAU6qO1XgTTPv5y7mHenx3jS/IqzQSwbGXWUZl5gYOReUrChPR+7u47+W/bZACOKVlITM1flZFuEebrCJjNwDkCcLdOgzkgogz2o+V0J4L8jBeTcSB7N0CvAXyTF8XeDOKNOJC9i7/K7u2NP5rmB2jVrnI+gO/sTDph4yVw8YUaYqXrwOwwr8+gdwtMGRsAoLh4wYV8U+Z8q05/wyBhWd0Zmqz/RJ175jm/soQ1JoIbugvd0//VOgfAED+KHgqZS/hA9n1Kb9BUAHl5eXUM/qu9jQl3TopLb3TpVCdsSwC0tTNV2vS6ROfrVqyQKkYLs9fh474i6+B3ljB7EfTpocOMMW3QNkKVLllHMH/A+7PvUXKx5hlCCk1Z7zDoXXsbg181GF5w6LUnjE+PZfCj9jZimmk0SscaL5kClyHUGWZVsoQVrMrYOCRKzDI80hp6dTc1hwH8upLXQVBSxDDzdAC1dqauZA5LvfgPg0HqTMSvON32Sf6qjOUuCyUO6LK1Y13qJIliZor/U5uYiEDktSB0goy1njqGQRFA0arMH0B41d5GwIzJ49L6AoCwWJfCcfGpRuj0E+Fm+MWeZgxVRGZcN3HiHP8jmQ9kx4ExTAWXXMC346tst6OWoOW8TY5JDq+JjDgIUM/frPwvEC0E4x37a5l4ZuHKLOcWwYHyZ5Mr4dhfCBgWECRLBADUAfwLmMpYcJlgKpPBB4UI+/bq6/CzJElWd+Xwl3O/BRDYfAZAKfqluExoEdSkx5PiUmMa5usvQczlTPTbghNhf9fr9UM8fZnlzyYfhia5goHzICyweExHYwH4qL04AC4DizKK1B1eamhzGyBrFHdJA+i2xlPaBDVNXL4paxPAW+xtDg+fYYWNnvH08AGANIxi/o+s6GsLA6g3CPcTk4GBeQzayMR75Wpr5Yf7zO95LkIlWHY5agl6nkBho2QAjc7gkKC5BaszFCVjYmgXxXwS4gQARXGLLqBrOpMmr6v62lznNg66AJatyTwE4vzLP+GyGtZlKy1HJu2imO8i62MFpswryWztSEyDCDyWgNlMXATGhwCXAe5npbp21PKrJ5ejlkDOmytHhnDujRDotMkk1TZ+w+V0Llq4v8KQfBgc2ChmAr7oaMzZDQD56+adBbCv4c+BpKSk1taqTtcA1t6wUW+ZuDeBegO4Fcw3XxGu5XfvOrl10AWQGJs6BESTnO0MDE2MT3ukYGXmP5WUQwCXg9IB3uj5aj9gylVyWV5eXh2AsoY/BwwGQ5he17MK6oXYecJlaxTUV0BMjNQKRCsAND4PxlgYFycpzvPTsSgnoFHMBHzUwZiz1t9yioqKLESoUMMnZZDLfZ5BFUCnSOscEH5nb2OGfZ6AG8LJ8rzS8ghgnQ1PgVGumpO/USlsmOhrLMDl8Heer1ELdjlCCpoADHEpUQBmO1q5mODYIWSmOYlxUk+l5bYvzi2TBcXAxcjCR6qFkB/1NTjUBT7FGPrIJ64+CIoAJEkSAroVcIzZO0lm2/Nksb0IwH5lLxxs9Wq3T5einI9k5hEqtQRnwWJ0h8JF6mY8Z7ypannukIXLEVJQBHDiJ8sMOGXzZGBK/rp5Z/PXzTtLRHMcbiA8nhCX9qA3dXQxLvxYJ2MIgN1+uLpTyKJ/J+OrivMaK4X6p34JoFTtchuhlAbMdpl0S3MBJMZJPYmdzvdjvF5oyrz0i7j6el0xnB4cAYuTkpK8WjdrX5xb1nF57h1gjgFBeYZy4m/A9GTHa64c3mHFq//2pk6vIEoLWNm/VTLH3adaC4AAS5FTVtDzYJ5hf5EkSTIxTYXj8OUm86/tknyokDsZF77eqSg3Ssg0AEQvAdh+mglmEMwAylmAgI/BLDHJt3fs3r5fJ2POaxTgLebUL+UNBHQGk3ai3+x/uL0icJVfzqT49InM7LSmT/EFpgxTY9cnxqUVAbDf9HEBMvctWJ3l97x/YlyaQ2++wJQZlIWxPeszB93ak3ZFhpO6czKMcuhtQ+n36T+4u0yzFsDw33O6sXNQKLC9wJSxytU9Fp1+NuDQkWsLQfMD4mAQMBikzsVbak1L367TW6yqpjIygzHG08MH/JkJZKbRxq0DZPAohhhO4ItnBgkAFQB+IKJdYPndzRNHfiYmvLgUzB3sSqgmoX8WbsbVK1ZIFZPGp/2NCUvszE8nxqUZC0yZH/vsexPAYHjhSmG2fgDg1h9PyMh7qw6GR1rjinB/GyI+A5kepwFzXA797PG+BWCmUcu3PBFt3FIqA3sBSifwPajfJhYJIBz15+rdxcwvMGjHqML3j1d3uerPTuWkKEnidHUvfT7YMWcxA0skSQr6NLavGAxShDCHvQNg4EXbd7/IyNlUt43Zn5lM2gkWg5U+fMBLAUQbP7gx2rhtDwMbAFIcfME6XddzN92M0/1ugzU8AgTsKa8+slTJvZIkyULwdNi1FATceuIn62XrB82B5JjkcLJY/gnnvQ6MD3+sENF0W8owEGLg3RCxFMAY9Jt9J/VP+ckbfxS3N48u33IfgE3k5+ERZLMhvLIyYcOsJ4u8uS8xLm01gHF2pkoBfZ9lJumkL34EoxNoMBjCyHz1WwR+2OmjnSJCP3LZMunXiwa7rWGPArgLoG4NW8MYwDEAx0G0A7K8uWFOwScUNaOPLt9yHwGqnBnEOh2qO3TIe7Roy9F3DCPfV3qfVS/P1FtFNH7b9NmOYc0EMNFfn7QgJiZGpzNftYadHz5hfxvWP7zQ7uED9TmaAOxt+AsYHl8B0cYPbgSwCeouXbYiYMOfl2/r6/nSeozGuf9h8N/tbQzET4pL9SlXgcZQ58g+hQw84WT/WmezPaBkg2ygcC8AZgKLdf42+41CaGcjeWXMxo2Kt0R06xm2GMDXdibBoKUxMTGBPivOH2hSXOoyBp5xsn8noB+xdHV2IFYuFeNWAKOMW8cCHLgdN4yhdZVXjld6uSRJVgJNgePQcUDniCjnL7fJkBCXNp9BztvZftbp+AFf+y9q4iZdPJNzkxsgZkuSpHg0km/K+BSETfY2Js42GKTO6rvmH4nxaZkEzHQy/0JCf+/SFVmBW2PwApdffHTxtoHeDPV8hnHTvm5/9OqcP6tO/1cw7DtNHYXZ4jHXgJYkxqclg5HqZD4tbHggkEmsvcX1L0+Wo7VygoR3dRmN0jEidooYpsTJcenabRB1Q2J8+lQwcuxtDJyDTCOXrck8FCy/GsNNsmihyg5YJbAPO3vPVIW9Ajgs8QoZvBDB3u0UnzoezIuczJU60Ailexy0xHWuYMhKT9jyGwJ7/arZtEkyC8Y0J/MdCePTxzV6gwYkjk8dw0wr4Pi9VhNR9DJTRkmw/HKHm84XaSYA+DjMXLYqcytADuFORLxgRpyk2U7hiyTEp44C0Xo4RjibSZYfz1+ZoXhuXmuayplBPtcly7ppAKrtTFfXsvVF/11SzqQJafcT0wY4TpZZiBGTv3qu4tnOYOBGANwszgwqWi39DMA5aDRpUuycP/jnkjImx6feARn/gGMKOxsTj89flfm2Fj74g5t5AGo2ZwaFV1XNJ+C3vPMEPQvhMvmUWiTGpg6RmT5wOqeQAUxqLucIuhkFkGa7bQH4fGYQAORuyq1h2TH5FIDhCfGpY/0p1x2TYuf8AYLeh1NSCgY/X2DKdJ3KponhpgWQNdtt277s+3YGg+Qx44I7ClZnvQVih/ctyfTK5MmSf8miGyEhLu0mFmILLuu8ckqhKSun0ZuaKC4F8I5h5H7Ai1BqH9HX1CDi5MkEYbZ+nxCXNj05Jjnc812NI0TYNAB1lwyEa7nK6jYs2lsMsdJ1BGwD0NXpo5cKTFnzGrunKeP2HRlt3BoDDuxu2/bfHUHEKYeTXU8T8GqbqqrFjR0A4YmEuLR5BLxgZzKTwB+Wrcg4kldSehcLjATzcEtVzZ361q0AErCZzdC3Cf8UgvcA9N7ZgX0+kYguCwmfOFG6Nsxq3cFAL6ePFhWYMmc4X98ccN9JYqboFVt3gTE0EJWH/XrB1uWrAzpwo6PAUwTkeCuE+ng760EA1wMAiNBpQN+DV93eXw+FOYQI+B6g7K4/9lk1dizZACApPqWL80kl9XBxgSnLbQazpozHXvLo/Pd7ynoRiDODLoRXnB3R4dA3DwJIBuDqlDCvhZAYl/4kwOtbtW+H7vcPQ/jVvi0UMrBXR2LcD0vWn6wl63Yw+jtdsqZrT32cVmcUBgJFw6ToFR/cC5lUPTOIWIzebHhgC1AfHy/M1qlQUQiz5hq/7HbXkH6itX8uM/OFY1s/O/Hr9z87th5Eb3W9XjdWSQKrpozicfLo5e/fI0P4fWYQGJUEHrPZ8OCHzh+pJYSFJQcfIMa7IFJFsGyz4ei7H6Pq6MmG/wK2tmp7ProhC0izxquJkoeLP+yts9nWAr6dGQRQiZCtf/lHwp/c7ljxRwiLd397C+vEbqicNFKus6DstXdhuVC1vRb6h73JX9SU8X6mjJlGGbeOYUDxmUEAH2FC5sBju9d68770VghXbsyp61BS+r++HmrlidrTFRcqPvmmx/z5CecDUX4w8GuqNNq4rX9DEsLhgN2ZQUA5g74HeLdgvLPZMHKnP/UoFULXuwd+2uF3UT6f6KEEAp6aNrhvs5jmVUJQgye8xZMQej35MNp0CvBKMOHg2YFRv29snqA50qwEcBGDQepMZuvzBCQBiACAiG5dcP1jIzSpX5ZxR/LQvrs0qSzABD1TqC8UFUlnCk2Zs616uTeBcgBUR/Topln9QsD18XXNjGbZAjiTFJ/S5bqnRu9r1b5dD89Xq8In0wf3vUejugJKs2wBnMlbmX26VYd2Ns9XqsWl8/uaPSEhAAAA4yrtKiPnlcBmS+gIANCwBdC0roASSgLQMobxuIZ1BZRQEoBmMYzMLQJocjBpd2KIcJN7t7kROgKAdieGgF3n3m1uhMQ8AFCfU2fx3tJDULxA5TOl0wf3VZzZpKkTMi0AETETpQe8IplVDTINNiHTAgCXWoFdQGBiGAHsnDYo6k5XhzA2R0KmBQDqWwHZiifheN6AWpQT6WND6eEDISYAAEge1vcnED0BdU8MMRNjzLRBN3nMvdvcCDkBAMD0QVEfgcR9zDilQnHlQtBD04b0DZmhnz0hKQAAmD6oz2dMumFg/04Mka0YlDQwartqjjUxQqoT2BjMTHl7D49hsBcxjCglRmrS4Ki3Qu2d70zIC8CexSXf9meIUcwYTnQphhEAjjHjOBF2yCxvTh5yq8+5d1tooYUWWmihhRZaaKGFFpo2/wdRteo+9xW2egAAAABJRU5ErkJggg==;" parent="1" vertex="1">
          <mxGeometry x="360" y="275" width="105" height="105" as="geometry" />
        </mxCell>
        <mxCell id="sNkLaML9vly4Q8W_7jKu-81" value="" style="shape=image;verticalLabelPosition=bottom;labelBackgroundColor=default;verticalAlign=top;aspect=fixed;imageAspect=0;image=data:image/png,iVBORw0KGgoAAAANSUhEUgAAAIAAAACACAYAAADDPmHLAAAABHNCSVQICAgIfAhkiAAAAAlwSFlzAAADsQAAA7EB9YPtSQAAABl0RVh0U29mdHdhcmUAd3d3Lmlua3NjYXBlLm9yZ5vuPBoAABVdSURBVHic7Z15cFzFnce/7555c2skjUYHyPKBJR8K5jAGDDaBODbBJOHcsMuRSiCBbO0fCRunQnaTgq0kBVup2iWbTUg2YZOQXQcCBDALOXBsIEAICQbZgC1LtqQZjQ5LmtGcb957+4cs2zPzzjk0M9L7VLnKmn7dr6f7O338+tfdgIWFhYWFhYWFhYXF0oKodgYsjJN5tOVuyMQDAHwmomVBoE+W5H/h7hj9ZX6gJYA6QX60zS/IUgQAVXQasnxjvgjIknNmsZDIpUQmSOKr+Z9ZAqgTiNtGJgmZ+FpJichYk/+RJYA6grkj9C2CIHaVkASd/4ElgDqDuS307RJFkIMlgDqknCKwBFCnyIS4F0Cq1HQK+oRys+XHAzaiif0UxzIfJ1l6FWNnWmiacVAMRVE0RUAGRFGEmMkincogPZtAMpZEdDKK+PQsIMsZAHGZwDQhYxgg3gfk97avagjfeWFwE0NRWwG5E4Cjkt+DQBre+KNwp34FTjgEAEgz3Yjar8M0fytkcJV8fQ5ctA/Sn++QSSlW8jS+InaALbvHnIxTvM/m5v+O9zqCFEUV9R5REDEzPo2JoTFMR05AlnJnQTxL4kNBJ67o8uH8dhdosjJmDVoaRcfkzeCyfYrhKXothv2/QJZsqcj7z4SL9iH45qdBZaNFxWdvD+cUUllLbMszodV2nvmhs9FzMcMyZU07m8kiMhDGaH8I2YxQEO7iKFx9jh87e/xwc+Vr2Aik0Tm+TbXy50nRa3Gs6f8q2hLYZt5G8K3PghRiRadREQF8+OlIgHXTT7mbPBdRVNGGKkNIoojR/jBG3h+CJIoF4RxNYme3HzevbwZHlz7E8cV/gEC0wH6iSMTzTUzxnyn5nUqUo/KBCgjgyudC3/S1+u9lbGxlaz6PdDKNYweOYio8qRje5GBw18ZWXNThLuk9nZPbYMu8ZejZJHs+jvmfL+l9SpipfJlkQUgZ1fCyCWDLkwNe3uPe6w029BabRjmYGBrD4F+PQBQlxfCty334wkVt4Ojivuqq8FkgkTT0rAQ7PggeL+o9apjp8yXGhfCGR+Aefvxl18jjlyo9ky+AotrID//6+AW+tkCo2pUPAI0dzei5bD0YG6sY/lL/FO59vh8nklnTaXPRPpBS2vDzpJSGbfqvpt+j9X6zlZ/y9GJszf1eo3YC0wK4/Nnhrb625lfsLrvdbNxKwXucWHNZL+xO5SwdPZHEl/YcwXDUeGXaZt5G65/vgJw2XkRyikTwL3fCNvO24Th67zdb+Sc5m7kt9G1ZJr6R9+iJ/LimBHDZM0M7WjoCv2V5jjETL+eFBOAnJSyjsziHFnAOLWAZnYWflFDKLI7jOXRvXg+bigjGZgXsev4oRgyI4Mw+V5o2PqqXpjmQQgzBtz5bkgjM9PkKlQ8ALgDg7gh9nZCJrwDIzv2T78uPb7jIP/Js6Dx3a8NrrN38HKuFEtHDCOikswiSompFSzIQFikMijT6BAYR0fy4MpNMo2/fAWSSyhXdyDN4aMdyNDqUNVxQ+KQMumsGhF27C5GTNLL9HkCe+3IqFaNLGSofANDd6j1VyvKjbX5gbkUx/zlDAtjy5IDX1xYImWn2SQA9jICLbWkEyMLpmhEiIoVX0xwOCgyUh3jKxKdn0bfvAGRJOdZyvx0P7egCQ+Y2gGp9LsFIoM6OqopATtIQj7khC7npSYwL4XN/gJT3Q4byXWyfr8SZAtDC0EM79p446A34uo08CwAdlIjtfLLois8nIlHYk7Bj2ESLEBkIY/DtftXwq1f78fmNraf+1v3lETLIhhRIbxqEbU5YcoqCNM1COmE79cvPx2hLUK5f/jxGBaA7BrhqT/hbRiufBHA5l8JtztmyVT4ABEgRtztnsc2eNDxOCCwLwtvSoBr+3HuTeGN4rrC5aB9a/nynduHLBKRJOzLHOzDofBEDrpeQPn4WpEm7auUDOD0m0JgdGHr/SYrtWlTzpxW45bFQo6fF90UjCTGEjJsccVxmS1dkgYEAcCGbwU32OBjCmGdUZ+9ykBqWye+9NgJ56t2imt20uwfh8/4LIuPRjUcKsbnZgYIIytnsF4OmAOxB7hkjgz6GkHGLI44VtPm5tllWMFnc4jAmAs7OoW1Vu2r4eFzAM3ufLbrwSxVBtSsf0BDAVY8PrfQ0eTfqJkAA1/MJdFDla/L16KBEXM8nDM1hW1a0gmbVZ60/jV2JKcmlmYZW4RcrglqofEBDAJTX/hOS0u9xL+dSBb98hiLR5uOxqsWNVS1utPl4sGVYmDmTFXQWl3H6/hAkRaFleVA1PClz+Hl8u2q4kcJPu3swuuH7kBgNIZEySH8S7NlD6Ixvw7LYFeA6j4NsTAKkemtWycoHVASwZfeY09Xk3qQXuYMScQmXO99mKBKdjU64bAxIggBJEHDZGJztd4KhyiuCS21ptBtoeQLLgiA0tPxYYhsEubCnM1P4KU8vQuf9RLElIBgJdNcMqNb43FSSlABSAmHPggrG5+wMTOGUtdKVD6gIgHKI/6S3nk8C2M4nCwZ8zW4blBoOiiTQ7LYVnVElCAA77EndroBmGXgD6ptppiQXXk7nztWLKXzF7oCUNW0IAOaEcHY0pyVYiMoHVATAe/hb9CKuYQTFqZ5DY8yoFVYsAUpEN1PoIJJPY3uzZvjTyc2n/l9K4eeLgPSldK2IwJwISF+q5PebpUAAW348YOM9DvVO8ySbbMYXVirNxZx+XtzNXhCEeqP2x0wvRJBlKfwzRUD6TKwmetMLWvmAggDIRu5vKVrbh6+FElUNPfG0utq1wkpBKz/z0AwN3qPuNxqVePTJa8pW+PMiIDjjRmzCJi1o5QMKAmA5eqdepB6NJnc8loIoFY5qRUlGJFqyF7Mq3ax+N+Dya0/V9jZ9tayFn3b3QCJNrCZS9gWtfECpBeCoc/QiLdMw+GSyEgYnZhFLCZBkGZIsI5YSMDAxi6yK10450MrTPHaX9lrWQLqxXNk5RYY1vISCNGP82XJRMCpjWFbTt5kkgBad5lYQJYxMJUrMmjmC1Nwys0Ljcwo1h5F5zDiMGGXGfr1hn8Ko/bqyv1+PghaA4RheK0IDUZrjRqWgAHgJ7RaGtWs3x+Nx/W7ELNP8rUjRa3WfS9FrMc3fWvb361HYBdDaft0usnLNeKno5Y1itJeTk5nyfzcZHIb9v9AUwfzGEhnKfo2VpKALoHTMv2xpZxRUFE4nbxStIwChMuLOki041vQCvIn/hjv5xOmtZXQPovwnT24tW/jKBxZgb6DFHDJYTPGfqdjGkWIp6AJEpTncGWRq+FghPU8EMas9eLUzS2+zdME3lrIK+63OICrVbiHp5U0UdATA1u53qxQF31hIC5rztymZ1JxqVQsRwIysXYFqnsLzNKl4Ci9mlAQQ1oogyUBYWtBtgIYIiZSuMJOz2lu8OtwLt8e/VigcA2SE9/UiDWZrb+xoJE+pmLZxqt1T3uXqeqBAAJlM9mm9SAeF2msqD2X08xSd1Ha/WhPQtIEtSgoEII9nHhOzomZjOipSRe3aqRRhkUJEp1vKClkkZuKq4Q6WwrIGqwXA3juWpRIzMc1xAAC8mq6d/tJIXqJj05BldV1vaHWC0vAXWKwoDptT0dRP9SIeFBjdX91CMCpSOGSgSxofGtMM37rczPnLiwdFAQiz1ANCRtDsBiQAexL2qhqGZQB7Uvp5yKYFzESmVMM9NhrntTrLmrd6QVEAe29sno2Nz7yiF3lYpPByFbuC/SkOI1n9Vmh0IKzZ/F+92q/oyLoUULWciNOpT0s6ZmEA2Jey4Yiw8NPCwwKN/Wn9QZskiogcVR/ScDSJj61W30O42FEVwG+u7zg8HZl8TS8BCcDjSR5DCzgrGBIpPJ7kDW0ZDx9RPlZunk+saSzrsXL1hqbtNBXJ7swk9T05BZnAz+MOHFkAA9FhgcbP4g5kNXbkzpNOphH6YFg1vMnB4Ia1TeXMXt2hKYC9n2qdmIlMPGgkIUEm8L9xB/alOFOHORhFxtx0b3fCWOUDwOBf+xXPEpzn7otay3KWYD1j8ICIyT5voKHHaKJBSsR2exJtZdowGhEp7EmaPCDiaAiDB46qhl+zuhF3bdTd/lC3GD0gwlCbnZiKXsLxtpDdxRs6IiYsUvjxrBPdjIBLuDRaihTCqEjhlTSHQwJjaroZn57FsXcHVcNX+u349AWBovK02DA897lyz8i53hb/G8UcEhUgRXSzc6eBtWocEiViTjwDWRoHBQZjRQws0/EUDu4/gExK+bTMgIvFgx/tQgNfe+sZ5aSsZwTNs+W5oY82tweeo9niXWdIYs57101Kp/wLMyAQlUhMl+hrIKQFHNx/ACmVZV+vjca3t3ehbQks+1ZEAACwdU/48oaA7zdcCWcFVoJ0IoX3X+1TXfMPOFl846pOtC+BygfKeEhUPi/tCP5hJjK5MRFLLuzODw3i07M4uO+AauWv9Nvx4PauJVP5Zija/rlxz2G339awr9rnBY8NjmLwwFHVMwE/uqoBd20MFpwJuNipWBeQz5XPh+73Bvy7WDu7oOa0dDyFwQNHMR0pOP4WwNxg73MXBnFBe2nHxdcrCyYAYO44OXuAecoTaLjYyLlCpSBmRYz2hxD6YAiSwmZTO0Pi2p5G3LCuGZzKLveJuIBH/hTGW6FYxTaD1BAxEPidRBC7Br58aYG7X1kr66rHh1ZSPtuPPE3eSyimvCa2bFrA6EAYkf4QskKhddpjo3H1aj+u6fbDpXF3xURcwN//+jBimYU71axGmIIo9fbfd/nQmR+Wtdn+zfUdhwFctmX3mJN1SrtYJ3cb73O20XRxtzVkhSyiY9MYHxrDTGSqYEnXyVI4t9WJrct9OK/VaWhJ95E/hZdi5QOADxT5rwBuPPPDii+Cr+nrY1sGPH9DM8wnKI5ZxdiYIMOyDpIm6bl9iMTpa+OSaaRmk0jFEohORpGYiUOW5QwhYzbgZhuaHAza3Bw6PDb0BHh0NdhMu3Hd8FjfUmj21Yj2f2VzzikZVfeC+Pn+I5qmn1s2ryAA4FBouizORx979J1yJFO39H9lc+lXxlgsHqruCbFh+dyxLJmshKHxWcwk1G+8WkgaeQbXrWvEhW1uNDkYkCfHF5IkYzwu4PXhKJ54dxyTCW13iVLTuaDdjS9saoMMGQ+/OoI3R0q7Ni6fmmkBWJrEWU214Zi5tsWBh69diWtWNyLgYk9VGgCQJIGAi8XO7kZ899pVmptJypHOPZta4edpNPIMvrCprXxf8iRVawFuPihfTRD4/v0zuZ+//nLuDZ2rv/N61t/qz7/8qGI08gzu23o2nAauQXSyFO67ohP3PPVBwa1k5Uzn1P8rsHm1ai0ASeA/CUBX0kIqQ02GJ/95IfIEANetazRUafO4WArXrSs8hbRc6VSaao4B1A/yz0NIZhbM4/TCtlzT8f+8PYbd74wjc9LqyFIkblrfhJvWn66sC9tdeOSNyqRTaWpmDFAr+Pjc38STBydOVRoAZEQJuw/k7jJqVmia888aOLPyzaRTaSwB5JE/Gt/S5S14Ji3KmEicdjWfUriVlMyzSmYU1i3SeXtwq7E5xRJAHu9EcncQf35jK761rQtblnlzlpQffnUEEwkBE3EB//7HkYXOZtmouh2g1vjVO+PY2uXJqey1LQ6sbXHgrrSI3x2ZwguHT+DNkRhu/+V7VcxpebBagDyGo2k8tH8YkoJzoouj8PE1jfiPj6/C/R9Zhi5f/Z8nYAlAgVcGZ/APzx7BX8Kziu7oBIBzg05855oVuKRT/7KoWsbqAlQYmErhay8OoMPDYdvKBnx4hQ8uLnc2ShEEvrS5HcdOpCpy0PRCYLUAeVzQ7sajN3TjJzesxvltLgzNpPHDN8O4dfd7eGjfEN4dzR0kMiSJT66r3/2FlgDyULO9C5KEvQPT2PXCUXzv9VBOnHUB9ZtIah1LAHk02E73io0ORtGvcO/R6Zy//bzClXN5g0ildPI/UzqOwUg6pWAJII+xvDsDblyf61zKUQSuW5t7s4jSUq6RdG7qzbX9K91XoJdOqViDwDzeGI5iZ/fpCr5pfXOOvV4xzlDhGn0x6RwaL9xrYzadiYRgym/AagHyeOLdcVNOo7G0iCf6xktOBwAu7/Rgc9600mw6Zv0GLAHkMZnI4oHfDxoq9FhaxAO/H8SJRGHTbSadeUiSwL2bO3DRWadXEotJxwyWABToiyRwz1Mf4OlDkwjHMjmDM1GSEY5l8PTBSdzz68PoG1PfIqmXzmgsg5eOTucM9EiSwOc2thpOJx+zaxPWGECFE8ksHnkjVPL6vJF03hiK4t7NHadXEBXqt1z5yccSQA2wf3AGgiTP/fJl4OEFXF1ccgKwM2RNbgx57XgUrx3XPs28dIiZ/E+W3BigN1gbnsdVQZZfyP+omgJQP8AvD8bOlm0IfPt5LaacNRcP8iRBZb+Y/2nVBECQuBMGRMDYWbEh6P96ud7b7ubw8M6VuLTTA35pXBIVhYzdBCl+6MiXtxaUd9X3Bh4KTUcBuOb/fqt/4lQYRRHyzRcvJ08+V4NXVdUuFTsjqNwQwO/UwuwMY7ibsCiOqgsAMrkLQMFh/jRJyg4aC3+d9hKj6gJY3eZ+PyuLvQB+CSBKkYTstLFDfp7eeOW5Z/2p2vlb7FR9DGAUawxgjroZA1hUl7qxBA5Gok+fmM1ca/R5kiTA0iTcdgZ+tx32JTn316duugAAeOHtke9ORlN3yyavqiIIoNFtR3sjD6K+vnLRLMouYFtv2z1NXts/UiRpSgGyDIzPJHEkHIVZ8Sx26koAAHDVurYHG9zMrTRFml7RiSUEDCu4XS1l6k4AAPCRdR0/a/LZr2BoUv02KBUmYkmkluY5gYrUpQAA4Iru4B88Hn6DjaVM/aRlGZiIpSqVrbqjbgUAANt6Wt718HIXz9ET+k+fJlYjJ5HVAnUtAAC4cl1XxOvgl7l4ZtBonEy29hxCqkXdCwAAtq5pnr1mw1nLfQ5O96JLQHkHzlJlUQgAAAiCkHZs6NjU4OSeXBoz/fKwaAQwz/ZzOz7pd9u+t1QMPioYdi5cdAIAgG297Xc3uc0bjBYRx40+uCgFAABX9RZvMKp/iBeNPrloBQCcNhixjHmDUR0jSgT5I6MPL2oBAHMGI7fbvMGofpG/uyboOmj06UUvAGDOYNTGy11OG2PKYFSH/DYe9H7JTIQlIQAAuGhdV8TN200ZjOoIEZD/LR707DifIEx1d0turiTLMrnnL8Ovd7W4zq92XkpkFsAgQLwoEeSPzDT7FhYWFhYWFhYWFhZLmf8HlUBX1HZ0WE4AAAAASUVORK5CYII=;" parent="1" vertex="1">
          <mxGeometry x="348" y="58" width="112" height="112" as="geometry" />
        </mxCell>
        <mxCell id="sNkLaML9vly4Q8W_7jKu-82" value="AD-Hoc&lt;div&gt;SQL query&lt;/div&gt;" style="text;html=1;align=center;verticalAlign=middle;whiteSpace=wrap;rounded=0;fontStyle=1;fontSize=15;" parent="1" vertex="1">
          <mxGeometry x="332.5" y="170" width="160" height="30" as="geometry" />
        </mxCell>
        <mxCell id="sNkLaML9vly4Q8W_7jKu-83" value="Machine Learning" style="text;html=1;align=center;verticalAlign=middle;whiteSpace=wrap;rounded=0;fontStyle=1;fontSize=15;" parent="1" vertex="1">
          <mxGeometry x="332.5" y="380" width="160" height="30" as="geometry" />
        </mxCell>
        <mxCell id="2hFXD6DIkBv9h68r6U_m-3" value="" style="shape=image;verticalLabelPosition=bottom;labelBackgroundColor=default;verticalAlign=top;aspect=fixed;imageAspect=0;image=data:image/png,iVBORw0KGgoAAAANSUhEUgAAAIAAAACACAYAAADDPmHLAAAABHNCSVQICAgIfAhkiAAAAAlwSFlzAAADsQAAA7EB9YPtSQAAABl0RVh0U29mdHdhcmUAd3d3Lmlua3NjYXBlLm9yZ5vuPBoAACAASURBVHic7Z13fFVF+v8/z8yccxNIAoSU24AAEZFIE6SFQIDQm6CgLioqigXLuq51f6u4rq6rfgF1WcWOqOvSVJpIC1W6ihCKoQnJvTeEXkJu7j3z/P5IwoaQBAsBQ+779eIFnKnPneecec4zz5kBQoQIESJEiBAhQoQIESJEiBAhQoQIESJEiOrHnj0H7J7Dh+tf6n5cDMSl7sDviYyMjMTdu3e/JqV/tygo+OOl7s/FgC51B34PrNm4sUOYVH8xTKO/aZh+wzQ2mobZwOGwNyAifan7V5lU6yfAkiVLWq5YtWoqBa3VGuzQFh7R2qp36uTJ7lprW25ubqdL3cfKRl3qDlwKvvhibnPTpl7SGn20xZ9DcatrWrXaVDLP/v37P9Va3wlg5SXq5kWhWinABx98UDsiIvI5RvB+1mKTZaFTWpfOa8vJPlFrXn/8+PHHoqKiDl3Ujl5Eqo0N8N57H9xumOY/TdOIMwyVbRo2aRjGJtM01xqGucUwxI7IyMjdSUlJJ4vLZGVlvWia5rG4uLh/Xsq+VyaXvQK8NGlSrVqa31WGOdQ01MuGzWxhKrOFaaouhmE0MGy2bqYyuhum0c40TNMwjALTNA8ZhnnYZjPylTLj4uNjryAi/6WWpTK4rI3Af7z6ahtbXv5GS/MN2tL3jBx521NsWbdoaL+l+UshxNa07t2f7dIlJeV4eHh0MIhOGvygZekZGnq3ZVmW1lb0oUOHRl9qWSqLy/YJ8MHYsWGnjh+fYcXG9RERkTtMU7W955578gDgk+nTrwgXKt00jWNhYbaBaWlpu0uXz8zMjFLKfM4w1QjTMAq01lfa7fZTF1+SyuWyVQAASE9NVacMvCQl3Xg6ziWtutGbyDT/HWjV5oRSZjPTZr5sGqbfMMyRaWnd5gDAhg0bahk22+02w3zMMNQKm832mFLmfaap8qKjo1+41DJdaC5rBShmUfI1KZLEVEi5LRgVJZQVbKrDaxrsdIezs144OV0wHM7PVc1In81mpEnDNk2JsPebN79iFwBkZGSYdrt9oVJqVK1atXZeankuJNVCAQBgZXJrpyXVNIAmdl2+7tOV3ToMIvCXDHiFEFECHK5rRh4TdvtJqhm5TWRufSesW7/8iLTeubbY2KBSKs5ms90XFRU1mIj4Ustzoag2CgAAC9Pa1AoPqFlC4JNO6Wvf/qZbh6+IsLbjkjVjVyYnR6qwYD2CaEQCrQnoSFL2AFiJyNrHVVz8CZvDdbzAmz3ZvzNzccHx4LZOq1efvtQy/VaqlQIAwNe9WtSMDNZYQIzXQDgtJP2j/cLVV5fOx2Mhvl3d6c8EegKABeAbEAwAkSBqAGY7gH0EbGbGZmbawEQb2n69wnuxZfotVDsFAIDlfVNizYLgYsG4F5IWC+LWbRes3l6cvqFXx6ZCiHeJ6AhJ615oOUlqerr5/BU/FOdJT01VdWyBKyGoPQEdNNAejCQAPgZvAHg5WVjSKvmbH2gsfrcLStVSAQBgQ1rH5iCaAaLTYJ7cduE34wDguz6d7wdhLBEebTVv5RQA+L5fyvuSaE7zuctnllff5v5dOlnMrwDsIKYozRwOoAYzHwSQzuCvhN/8vPXSpUcvjoQ/j8vaEVQRbRet3kxE7xChhZCUymMhvu/X+S0i/MWQ6Fk8+ACgiA4QUWJZ9WQMSk3cMqDLLABTBPCOZmovgA1m5JE6UoiuJGkiiOwEekvbAr4NvTp9sb5Xp5s29WpR86IJWwHVajGoNLtqOcclnvCOJELKpjWdPyRBQ4mo49Vzlm8umY+IDpBA05LXMoYlmfDHPk3MDxLE+PBTGN5w6dL8rQO69Asy70uallEAYHnRn7EbBrapIQts3ZjoD5r5vQKOCKzv2eEtEsZrl9JuqNYKMHzaNGtTv5RnAUwnwq1E+FpLq6B0PiLkEmhA8f+3Dkm9WhRgCginhGFc22TGot3/y0t9BLCpdB1tZ2/MAzAXwNyVg5Ijw0/z9RbErWwFd63t0ekTFtbLHRauzawkUcul2k4BxbSYt2ImgJ+ICETUW7HavnVg14ytg7o8nzGoS2sAICEOCFE4BWQO6XanYlorBKZfacZ2LTn4DBAEDTJILK6ozc6zVp0I6uBsQfQREX4g4rugxZbV3Tq8sGFgmxqVKnApqq0RWJLN/bq+SJJvJ2AyEfUhUMtCfQAItIeINgI8lEi8C/CN0Lg58YslX5WuZ8fgHimANeXKL5cmlNXO9kHJkfkBGqaZRwDowkynmHmuxfwDwA+w5nDWOK6hH0xOXze3suUGQk8AAICQNI9ASJq9/Klms5a1ZmW5BOEOAfovEdUiwg2CSBDxaEG0HArHyqxH6AdIiI9LX8/o3zVly4AukwOW8AqivwsSPwqIAWFRR+JOFBgjBWEwNO7TippAYi6R+GJlt/aTv74IhmLoCQBgU69eNY0wf26zWcvOevzuHJaaSJaYT0SRRIgDUPhYKOQ7QD+fMG3J5wCwa0iPJiDezFInJU5bujNj2DBTBQ7cqDU9zMz1NfgTzTS1edtla0v6Bb7tnfycZiS0XbBqZPG1b9I6tmZLf8aMAIng4OQlG3dVluwhBShi26Cue7SNmidNW3oSAHZdn9oWEHMJYhkJNogpFxLjhcZQEI0GUJ/BAONrjeDtYPkWmC1E6hGBYzQawGPM+getxXvadmBO0VvBWXzXNyVZa/0fQ1HLFnNXHimZtjI5ORJG4E1m9GStB3ZZsWFdZcgdUoAitg9K/c6wqdTG0xYdy7y+W2/BNJ2IvhCsHoe0dklNLevNWJgJAHtuTw0z89QTmuhJZoQx+BAz6rLmtzWoO7O1mFiMa/z54h/La29DWlotqU5/rzU91GbBytnl5VuR2m4sazyqCf1Sl61bcaHlDilAEdsGp64hDvSUynYdAe8R8UeNmncd/dPWlX8i4NoGUxfdWDL/nttTw4x8YzIzhjMDzAzNnA9N3RrOXLTmfO1t6tv5E82sW89fdev58q7oeu1DmvF3i7lv9xUbVv0WOUsTMgKLICCGhO1RZp5MoHcazUi/G2PHMhijWOClknl9I/o1t/nNdcTUi0GLii4XAAhj4vmZQ7oNrqitTf1S7gJRR4QZD/6cvqUsW/86gBcFMCu9Y5um5y3wCwgpAApX/gDYAf0sAeMbzVz8AAG8Z2j3FAb/lPDZou+Awvf8rJt6PRK0gus0kEFEgwjcjojfDkiRCMaHAKKIaMbOId1uK6utjL5dWhPwChEPa/3Fz18X6Lp8/UsgTGdJc+d37Bh9QQRHNfcEFrP1u5SmglGTiP5xxefpTxdf1yTuklx49++7qadzv8aHYG5MQg9BMG9ZkCJWM/Omk6jzYNK0aQUA7th5Q/epYHzAwAfbB6fmNf1y6fTi+r67LrW2DljTwPRki7krNpbXn/TUVGWDP5Ghr7aYGxJzA4vRgDUngtHAQMGdAF69ELKHbAAAGYO63ClA7xHhB4KY1MSMmbQvzxsVsJkzEmcu6b7r+rTrBfG/AJps84f/zTl7dt6+YT3f1eC0YFC0S/x8wYGS9e0allbfCuj5zLo+s+zUdNbiHxigjP5dPrcIP7Wcs/zhM20PSzJPH6vTGtDtg5a+FqCrmfkqZvYwY5MGb2KLd2pBP1mBwL5afuFpu3Fj4ELJHlIAABkDuswioquIkFjo/qMFBF4gCD5AdpfEV7EU9zSetmgzAOwZ1v12MP0LJDo3nLbw+zLrHNY7WhT4F4FZnrKfbBvmiXhEMycX+M3bTON0J4vRjTVSmNBas/ZoppVgvZ602CSEf1PbRRvLdDZdaKq9Amwb0qOuFQj8aLNqOoMqvwOgZ5KgaBDnCcgdBLyT2KrLJBo7VgPAziGpVxOJNUR8Z6MZ6VMrqnvnkE5x/qCxnLX+lkHDmDmDgabMvE0zr2CNVTKoV7Zasjr74kh7LtXeBijwF9wJ4qVXfPWVf8fA1AwL/B0YPcCkLfDfr5qVPhNfLAFQ6Mtn0DRAj288Y2m5g79tSI+62goM9gcxlJkTGCQZ/CY0zT9N/pUdvlp7/KIJeB6qtQJ8M6xjOJ/kP4HFyM0DOg8p0PpNIsSD8AxpvVtIGgjgTBQQkfG2Zt7RpGXqs5i59Ky6tg5NcSCghkBYQzkYbAdgJZjnkZB/vHrW0t9tKHm1ngI29kp+RAgaQ0RriDCi6Md4ucW8FU9kDEsykR+z57TjZELbtzcGtg7uMoaY7iMEOzadteoEAGy7LjUBmoeyksOlsiVoIWdZJ47NOF4juLzTtKoRMVxtFWBD7xQHgbcRWBJRBAgQhH+3mLfyAQIYADb377JSS2uUZBVF4C+1VClsaUOCh0KKYcIw60e2Tzka3f+6euFNkwwAvYlowSUW7RdRbacAra1xRFhITFtJ8DPE+KhFx1UP0jyc+ejDAu+lALXXQj8nwDsBniOVctVo2+Fonb6DHZEtWikh1UkAnwHoBiD2kgn0K6mWCrCmR6ebmDklKNDCYOoA5um7arnuvKbEMm16amoYc1AANBFCCaN1WzOqZ397RIvWQhrGHqXUX4VUy4hoLwAw839RBRWg2k0Bq7p3aiygV5PgocQiCYQeEXWO31K8XLuuV8dOhi38LtZ6uHLV80f0G1wrol0nKW02SCnvl1J2llIOkVLmKKUmCCEmEVE+M48FoIjo/11aCX8Z1UoBvu7VombNgvClRDyNSKQSI5zzqZ8WQhkRdL80zAcZiLUlp8qa3XtK0+nOkFK+p5S6WQhxRd26desSkT5x4kSsYRh/llKOkVJmEdFwFE4BVxDRA5dazl9CtZkCGBDL/WFTGPokIB4n8E4w3YT4qBfl6dP3Ij5eqpQeRliH5BMqPPwzIeV79erVWwsAPl9OKhHlFm8ZFxkZmQvgidOnT79JRFOklMsAfIIquLhWbRRgaedrxwnm6zRABM7lGjWzydLb1FXNTaNzqjDqNYBS8gl/IDCxaWLiWRtBMHMEs3VOpG94ePheZk5FoRE4BsBbF0eaC0e1UIBFydf+jcEPa10Y00eGqkUt2lwne/Q8JevUBUm5G+Atmrlzy5YtXy5dnsEulLNdHBFZzPwGgEEIPQF+fyzocM3TYP1XBkC28CM6rXcYru3wE9Wo8QaT8T0zVrAW9xZYaqctjLdv3b79vmZNm75ZXD4zM9MGZrff719fum6/399UCPECM3ctDB2vejbVZa0A89u3fhTAC1rKXO6W5keHlPXSDH+je1pqOgCsXr1mCpjebdOm5QoA2Lx582hoMWX79syDTZteMQ0ADKNGM2b+oV69emc8e3l5eS7LssZqrQcKIV4jotsBjAbgvPhS/jYuWwWY277VGA36c7B9542ie/fdMMw/9evXN6s4fcWKFS215nb5+TXaFF9r3rz5f7du3WoH9Mc//rgzukmTxElCWK20lqsA4OjRo3WCQf1EQUHBzUKIN8PCwhKJ6CQAMLMAUOU2lLwsFWBOm1YjYfHV+Xff85CId0yVwvjjwBKDDwDMeBXQt3fr9r+NIQGgWbNmr23fvt0D8Ae7du3uaVlsSYnPvV7vY35/wV1SqvcLCgqS4uLiziqnta4lhNh/MeS7kFQ5o+V8fHnN1S20wNb+GzbdZ8XGFjAYQHBfyTzp6ctGMmNVcnLy6rLqaNq06TSAWzC4CYiHg/TfNABmfU1MTPQ/Sw9+EXUBHL7wElUul90TYNC3WzYXL+aQ1j4mAa1FHIB9ALBo0aJGGnoEtO5XXh2bt29vy8zPgvkgmA+AWUHrH+0uV7n7BBKRG0CV2h4GuEyeAMxMzEwAUDz4AOD3+39kZotZpwFAenq6srR+C1rf161bt2DpOjZu3NRn06bNs4VlPaK1HhsMBm8BsJKIegH4k9frnZGbm3tNOX2oB6DcD0F+r1S515bSjHv33Wh3VNSx4cOHW2WlT5/5+XJDCpff7786IiLqSSHkkT59ek4oTl+3bp1da32jlPIWKeVym832WlJS0j4A2LFj56NKkbdx48afMjP5fL6RQsjnpVQ7pZQziXhu7dq1dwNAMBjcqZQqcxeR3zNVWgHGvfFGc5sQwTFjxmwrL8/06Z/fIqWYopT8RgipatQIS7YsqxGR6qqUuElKWVcI9a5pyilt27Y9E4iZmZlpY+ZV4eHhKSVfAffv3x8eFhY2Rkr1kJSynpTyqDTUNimEMA2jQ2XLfKGpsjbA+PHjE4TGdWMeHPN8Rfm0DnwtpJmjmTsReFe+v+CAlPKIEJivtXi2a9fkMj18gUDgXinl9JKDDwBF/3+VmSccPXp0kJRiILQeBKI5F1C8i0aVVICxY8cKS2NKwBTDSqdNnDg1IiKiIEUo6q6k0QMkmjGzYmYwc0MLnNa3Z1p6RfWvycyM4oLA6GAw2L6CbBYRHWPm2sxcS2tdKV/vVjZVUgHCatS4hTXXfXzMGN/YsWPNmBh7BympuzRUDynyGjHkBoC+AVsPg5HHLNZr5umC+QbB/DgzL61ou9cap0+Ph5TvlTw8opjMzExbZGTkLYcOHfqTlLIGM78FoLYQ4oJ+tHmxqJIKwBr3QbLxf+MmfKWkjGbmTcy0CtoaNequUWdZ4p/9d9r7grE5WOC/yQiv+Tw0P7VgwYIJzPzHspTgu+++G6w1tzp06MA9Ja9nZmZGhYWF3SOEfJiZtjDzk7Vr155LRPrkyVO3GIaxuXRdVYEqZwSOGzcuPN8fOCGlnG0a8o5HHnmk3A8sP/vssyaA2CyEGjB8+NCFzEzz5s1/VQjxJyHUO5blf7Bfv35nTgJZs2aNWyljrWGogS1btvwWALZu3eowDONhqdSNQsqZkujNevXqnQnzPnXqlEMzT46MiOhVuZJXDlXOD2BZViQASYCsaPCZmQKWfluDpw0fPnQhABAR9+/f91FmfgSk7zBtYd8sW7bsKgBIT0+PAInZAL/VsmXLbzdt2nTlli1b3iEhZgDIDLPZkhLq13+05OADQDAYTGOtK7Qpfs9UuSmgQYMGh3bu2pOnwVdUlO/DKVPuUUI2DfiN60un9evXZ8L8+fM3aSE+sjRvWr58xRtSyiZg3svMGzZu/O5zACe0lm9e3bRpme7iYrTWvQ3DqLKHSlW5KQAAXvzHPz8johulMFo//vgj53yc+fb773cyhFokhbzhtttGzCuvngULFjiVMlZJKROklJBSZksppthstvEtW7Y8UF65Yvbs2RNWq1atNdHR0a1+q0yXiio3BQAAQT/NzKc0rHN22Jg0aVJ90pjJwP+VN/izZ89vOW/e/DeIaInWPE9r/oSZ85g5ihm3BIPBfhkZGeb5+lGjRmQfFG4FW2Wpkk8AAHjxpZfuESTflErc9tijj34MAK+//o7bZuN0IeSuWrUi+5d0D0+dOrWZlMZwKUV3IYxtSsn/njx5bNnw4cOt9PRla4QQi4TA/xk22wNCiAeUlIYUYoE0jHkCWNasWbOfSvfhwIED/5FSvl+3bt2FF1P2C0mVVQAAeOmll8dIpV6TQoyDqSabQnwppTwVqFkzJTIQEJCyuxKil5CqoRJyhxBqTkxM7SUlF4IWL17ciYScReDEbt26HQWAqVOnyoZXXJFiCjGYpOyqpLxaSnlaCrFVKbVZSpkhpdwupfxXXFzcVUQULL+Xv2+qtAIAwD9ffXWoEmqSlDJGSmkpKd6XUgohhRZKrbMptWTEiBHnHAsHFA507TrR66VQ43v0SJ1SVh6gcK4PBoOtiGRbKWmAlLK3lBJCiHEOh+PRypOu8qnyCgAAEyZMiNegiUqq66VUHinE3ffee3e5xl8x8+bPf04J1bpXr7RBFeVjZrFtW2YPw5CjpZStpKR0KdXdhqFaxcfHn7MzeFXislCAYsb/618dDci/SyW7Cyn+qwQ9O2rUqB1l5Z09e94NUoqXtA5eO2DAgCOl05lZfP/99x2FENdJqboqJdcTGf9p0qTRqr17949USjxSr567ZeVLVblcVgpQzMSJb3cyDLpfSjVESjlLCPXOrbfenF7s+p0588s+ypAfGkr26tu37//OAUpPd5ummSqESJVKJUsp1xtK/efQoUMLS9oNe/bunSuUWtjA7Z5QVvtVictSAYp5//33Y4nUCKXEDUJKlxTyK6VUppDib1KoEULIXMOgNkKotlLJzlLKPCnkV1LSPL/fv6p01BAAZGZmxiqldgBo1LBhw9/V+T+/hstaAUoyefJUl2nydVKJXlKqjlLKOlJKJaXaLJR4g7T+snfv3ud1/mRmZj4lhGrQuHHDey9GvyubaqMAJUlPT1dHjpy8VilKNgx5rRCynZQSSskfiORmw5CbpJR7iCjr2muvzSmeOjIzM6OYsVMI6p6a2tGvtWgmNB3TQgQ8Hk+VXA4mh8PRxhYMZu/NzfUVX4yLi4u3EcXuz8nZ4nbHJgK27KysrErf8yYxMdGWl3ciRQi9Nysr96JurLRo0aK6gGpmGPIqIcSVSslEpaSLSMYrJU0p5TEpJSkls5o0adINAJxOZ2dibgsgP9vrrXIfhgKAEuD1ASVnADgTXWMo8brWuAbAFdpSD0qr4HUAlXZoQTGnT514SQAJlqXGOR3xL3u8OUMBwOVyNRGWVSvfsrbl5uaWFZP/m0lLSzsEYEXRn7OYOnWqbN68ee2AlLUQDJ65EQKBwPdSyh2maVZZR5ACcBCEK+Pj42vm5OScio2NjQCTuzi6WsjgGyxtHgBoEBPjCJhmewDbPR7P9oTYWDszU8CUSYD8xuPxFLhc8V1hkc72+VYACAIglyuuA1miNpRam5WVdfh/dcm2RGpHdnb2jw1iYhxB4FpNeAOMg0TUwel0NhUiYMHSXS2BYBipcFwC33uRS/kQSn36VaSMlaKQF4vCxSCmOYqoPwAYhhhIxLOKM7AlX6NAoLHbbm8XVGo+MTck1pPdDsfQgBJ3BE31tWBxp9Y6wemwL4YWPQjo43LYFwJQTrv9r6zlAxDckq3g6piYmEin05kcNNQcYtEYWk90OxyjA6bZCKAYYmonmNuBOZy0boegrMPMxwRzFDPnX5qf6fKlUAGEmAoqnAKI6QYK6umlMzLxgwCezvZ6xzOJYZroAAAw09wsr/cPQnAiMXZle71PZ/l8TwCc5YqP70OExgTsDWr6TGruGxERESCtn4DQD2R7vRNs+fk3MPjpIiNqt8V4L9vnmwzQsWyf76Nadet+D0Czxi5izrt4P031QAFAdnb29y6HvbHL5XKT1vJUMJgbbp69GsqgWKH0fgDweDz7AOxzOeJTwLwfAEiTi4G9ZwoQ7SFBTmWzPRwsyP+jJMyyQKfYOnk9kXJKv94LALuPHDnmstsNlBOckpGRUQDgHIUMcWE4Ew9AhNlg6y1mLvOAZAJv46C4BgBcrriOTofjtcLrhcaCJtpChA5nsmt0AvOOgP/0n4MaE7M9vhbElMFBozsDGZZhdAQAtzs2EYQTKLQXSlJu1G6IC8cZBRAaU8Hocbqg4IuyMhpB/U8m3OFy2GeAxXjF/HbJdK/XuwLgHS6HfanTYV8Koi1ZPt8yMP2gCF+5nPapDNRnIb7SoGcYeNTlsM9gS04lxrlOFcJul90+65zrIS4tMTExkRWlJyYm2txud3ipyyo2NjaidN7o6OgoVByVVOViFkOEqFLIsi4mJibaIiIiotxut87NzS3zq9vz1Vu/fv3ax44dCwL/2371UlIsU+KxY5b3d9Kn3wNn1gLc7tgroOXDYPRjoGGJPCfBWAvghWyfr9z4d5fd3g0CI8HoAcBdImk3CPMZ4nWPx1Pm2nxR+UeJcDMDGdle38jy8v0SnE7nlQT9MBh9ASSUSDoB0BoB/H2/11ulgzp/KwIA3A7H3WzJzcwYU2rwASAChB4MdCmrArfbHe1y2OeCsASMkTh78AGgERj3E/Rmt9P+HMpbgCJ2M9AGwAU5F89lt99HrH8A4z6cPfgAEAlwTw3d+UK0VZURLru9G4MnAbARsJGJB1mMuGyvj0iqumB0B3gSEZ9z9q3T6YxhK7gSQD8AIPACJjFEqKDLHwhGSc2NmfguANvAMJjxjMth/3dlC+V0OnuBMBGACWAdGAOKZYKQMdDcg8HvMNMFO32ryuKy2790Oezsdth3n8fCL20vkMthn+ty2NnlsGun3T6mvIJtAMPliJ9SlJdddvs5hyq6HPHji9LX/lpZinE67F8V1uX4MT4+vqIj2Mu0gaoTAoSrAYAZSw8ePHiigrxnGYNuu70Piu58gF7y+HwTyyu4EQhke3PuALC+qNWXEhMTbb+t6+VDKJQJ0EtycnLK3dgJpWSqjigCjhRuqYVGv6QgEwq/ymF4ateNHpvtPe8GWUEm/RdisQAMR37eiesBfPprOn1eCEfAcAPiF8lUjNPprEFa38eEQcRwAsgjovUsxL+ys7PP+RTN7bSPZWaHgJgZFR2dfuTQoYcI6MOEoGbcKoS4kti6FQBIGk8Vr4ie2278KGK0Y6ZMj8931smgboejD4NHEdCMC59cu8H4LNvn+wSlb06How9DDyEib5bHN9Ztt3ctHC+2g+m12nXrfnn06MEUaZFPgFBs2Xd12u1/xs+IEkpKSjIBpAIAE31U5K8/Lx7PgcUAcgEAmnr8nDK/BmYqkol7uh3xD+MXRD45nc4rBestILxKQBcQEkFoweBR0NYGpzN+1LntYThAo5m41ZHDB98nwisg9CCgNzNHSFmwG6BRAI3WOjCkrHbbAAYx/QOg0SU/NCmcPu2TGfwVgBsYaAbgSgB9QZjsdNjnJCQkhJ1VGelWAI0GY5jbbu/LhMUArgcomQSSjh49msAsIy0gSQQsfgVFe+gR4RWX3b7Q6XSWuRVaMYcPH24OIBwABPMveY3SADYUdhKVFlJtBoP/AJAFAAya4HI4vna54s7bnsvlqkusFzHQkICNELqT3eszLUZDBr8DQBLoTbc7rkVZ5VmjExENJ8IrBLoeoEcBnNq//6AHwAIAIBY3llXWZ7f3QuGRM/kQlgoEAQAAB+lJREFU4sxHKj6H/XUAtwE4QaB7pGFG2/L9tQl0KwjHCOhTkJ8/tsz+AIIJE0BYzsQ3A3QbNNYZhrFPWJaXmH9SOTk5B1wuVzK0NQtAaxB6EOsNbofjMwt4yuv1nvNNnGSO46J7ShQpz8+FGF4uXEGq+0vK/RL25ub6HA5HZ8E8C4QWAPeEFt+6HPGfMsmnPR5P2Vu6svU8ADcYO/2WlZqbm3syGwB8vr0ARruc9sZgdGdLPArgXF8FYSCY7svyeiedWzc+BKEvwN3i4+PjcnJyzgpAJaIRDAaDZnqysw8BgDs+vj0D9wJgAg3P8nrnlyjysctulyB8SIQxMTExL5Rhw11JwMosj68Xzl1sWwsU+QGys7Ozsr2+dswYg8KoF2LwzQK83eWI/ztK+eQZ+N/bAvMvjRXMK6rkvF/f/ha8Xu9P2T5fGyJ+CIVbuAqAbiHWO4r8EWe9ASQkJIQV+THAgp8pM/RM4yMAAKFnOc3uz/Z63ysrwQgLm1XUDyWJbiiZFhsbG8HgwQAgmN8pvs5E9wAAA1+XGnwAgN3n+xSFAxthmmbHMpolTfp5nDv4Zyg5sEGPz/fv+vXr/ydYUPAEER4CEA7QX1wO+zVBzcOKLWoiOs5Fq7VBKWuVV3lZMCGqsA5cjJj6YJYn5w232/0JdPApZjwAIJwZz7js9tYsxE0ejycPAAoK8q4hiBoAIFhEuOz2c3YgI4FGzAAYDqfTWaO47BkYi1HOj7137958l9P+GRj3g3AjgDP+EFOpIQDXAPBjls+3rESxlKKKD5XVn6Io3qMAYoj5XIOXEPB4Diwp99dBGatt+/btOwLgSbfb/QZbwQkAbgDQVwnxAoA/AgC0zoYonAMErKsAfFdRI6V6lVi41E+ZP7/Mb6PI6n7M6XS+Lth6nUHXgTBQQD8H4DEAIC2cxaYig98uy2zkEhEKwWAwEsVPsyJIoMLdwoXGh5pwPwGd3W63KysrK7uovRFUWP+7KBkHQXAU/kUjQBhRUd1MHHXuRXhwnlfdcpdbizo33GW3fwHCIIDHREdHP3P48OHjWTk5GS6H/TCAaAb1xM98nStc/uVrCvumf7PD55dSNPdf73LYZwPox4yHnE7ns+fcycA4ZlToJdRalxWeVmHI2n6fb73TYc8gIIktaxiACQmxsfYAkAagwGKeXKpI0f7HvEAzVXiTicL1mtKFK/KBADj/ejuz4DeIaRAAFW4YzQCsAaAZNJPAd4FxY4OYmKd/OnjwvI6AcJvtToDDALCwuMKj1ysRTYyJTOiHQldxUwDfEpBbfOtJxvv7fL6MSmm90Bh8BcQ3ApgQVOJGFNojn5c2DAEcAJAApu89Pt+TldGdn7NFzBlXKkt55n2fhHgFhACA8KCh3sN5lKleXFxjAj9XWBjT9h84UOnfGZQHl5BJWlYBAOQHg9+iaP7WRMmV1bZpWR8DCILR3uFwNGDQHwCASbxzTmbCusI0rrT+CJfDPtnpdJa5AtcGMEhT8T48R+rUqbOlOC07O/tHBopPyezrsttn2O32Mo9OredwdNFCLGcgCkAuQzx2QaUohdMR/7HL5WpSVlpSUpLJhOLDHXP35+RsB4CiV6gvAYDBf20QE+Moq7zL5WpSnpw/h725uT4Q5gMgAQwF0JaAPR6PZ1HpvAz+uPBflOx2OMq0ARISEsLO57epCAWgD7G+1eWI/wZES6CxmwVLYiT4iG4GozEAMOOvpT1+Ho/vFbfdXo8JD4AwSBIyXU77F8T8HUPkE7GDGT00uHORUXUQmgd5cjwV+Q4SXU57udNDeI2IW3fu3OkvLx0ACOgPbf3B7bCvBCGdC2VSxGh47PChP1DRkjeB/oISVjtJ60m2ZG8A7qAh17sd8a8Q0zfMnK8lGpGmwdDWHwBcg2KP5q+AmD5k8ACAHwEgGPQeyghS8Xhy5jgd9vkE9GHwZJfD3hmCp0uLfExUVwMpAX/+3WB8BuDbX9MXhUKPWRxAyWAkgwDiM+YwCDiuGU+Xs9jDWT7fg25n/CZmehGMWAAjGTQS4JJWswZhhqXxuC8nZ+95+hQNxjmvPMXk5eXdfn6xKAtAbQZSwEgpKVPRuscxMD2R5fWe9djNysrd6XQ6+xD0NDC5GJjABIAIxCg0yQi7tKV/0+FQYTVrzjl96uQhAPUABIUKfFBOVs73F9wYHmZ+CkZ/APdC070WnZEEAPIF0a/eppYASKfT2RFadxRAfQYagFBQ6LGjdbb8/Fm7jxw5dr6KYmNjI0wp+xDQlQlOAH0A1ABwQFi60/nmfJcrriNp2fx87WR5ve+jAsdGEaqew9HJIu5wRiZGPjO8gmhtnt8/+/Dhw8fLKxwfH19TStxImjqDEA/CKQL2ssXL7Tk5X2/E2W8ILrt9OBHVZmGtzc4+8LO2jHE6nb0EcwKAg1leb5mh+CVx2+2pTBhI4EaAIA3kErAxYFmfHzhwIOes/rhcrUjrdsx8JNvnm1ZRvZX2ebjTGdeTWMwGYANjsT8YHHKe5eYQl4BK2yjS4zmwkImHgxAAoYfNMDY6nc5eOFvpqn1AxqWm0jeIcNvt/ZjwMYA6RZdyAewHEAHQpGyvd1xl9yFE+VT6VrFZPt+8oOY2IMxFoaUbi0IrugmYK10BQ1TMRR0At9vt4kCgNQnhAHAwyLzS5/P96tepECFChAgRIkSIECFChAgRIkSIECFChAgRIsR5+f8b70E7GGImYQAAAABJRU5ErkJggg==;" parent="1" vertex="1">
          <mxGeometry x="-428.75" y="-310" width="100" height="100" as="geometry" />
        </mxCell>
      </root>
    </mxGraphModel>
  </diagram>
</mxfile>
